<svg width="380" height="140" viewBox="0 0 380 140" fill="none" xmlns="http://www.w3.org/2000/svg">
<mask id="mask0_66_2113" style="mask-type:alpha" maskUnits="userSpaceOnUse" x="0" y="0" width="380" height="140">
<rect width="379.856" height="140" rx="8" transform="matrix(1 0 0 -1 0 140)" fill="#D3EFFF"/>
<path d="M37.455 18.9705L37.4549 18.9706C36.6301 19.712 35.8075 20.4556 34.9846 21.1994C34.6682 21.4854 34.3518 21.7714 34.0351 22.0574C33.8275 22.2488 33.6199 22.4417 33.4119 22.6349C32.8785 23.1304 32.3422 23.6286 31.7941 24.1129C31.5057 24.3681 31.3929 24.6306 31.3945 24.9952L37.455 18.9705ZM37.455 18.9705C37.7498 18.7052 37.8993 18.6418 38.0044 18.6418C38.1091 18.6417 38.2594 18.7046 38.5552 18.9732L37.455 18.9705ZM38.5553 18.9732C39.3116 19.6602 40.0669 20.35 40.8224 21.04C41.9367 22.0576 43.0517 23.0758 44.1721 24.087L44.1721 24.0871C44.4605 24.3471 44.5689 24.6116 44.5646 24.9758C44.5515 26.0723 44.5536 27.1699 44.5557 28.265C44.5566 28.7165 44.5575 29.1676 44.5573 29.618L38.5553 18.9732ZM31.3747 30.6055C31.3772 30.1085 31.3804 29.6112 31.3836 29.1137C31.3924 27.742 31.4013 26.3685 31.3945 24.9954L31.3747 30.6055Z" fill="#FFCF19" stroke="#FFCF19" stroke-width="0.559933"/>
<path d="M33.1927 21.4388C33.4217 21.6462 33.4939 22.1784 33.2676 22.3886C32.7191 22.8982 32.1711 23.4082 31.6094 23.9055C31.2604 24.2142 31.1133 24.5536 31.1153 24.9989V24.9989C31.1306 28.102 28.5884 30.6109 25.4852 30.6105C24.8686 30.6104 24.252 30.6102 23.6354 30.6097C22.8042 30.6091 22.6887 30.5044 22.6874 29.7558C22.6848 28.1678 22.6986 26.5803 22.6788 24.9935C22.6736 24.5451 22.8358 24.21 23.1802 23.8989C25.0426 22.2157 26.8911 20.5187 28.7469 18.8296C29.4152 18.2218 29.6567 18.22 30.3144 18.8158C31.2769 19.6877 32.2328 20.5651 33.1927 21.4388V21.4388Z" fill="#FFEEB1"/>
<path d="M56.5451 26.3474C56.4866 26.5522 56.5353 26.6887 56.6913 26.7569C57.2081 26.9714 57.8418 27.0787 58.5828 27.0787C59.2166 27.0787 59.7528 26.9032 60.2013 26.5424C60.6498 26.1817 60.9131 25.7039 60.9813 25.1189C61.0886 24.2122 60.5621 23.5394 59.4018 23.1104L59.0508 22.9837L58.8948 22.9252C58.7486 22.8569 58.7291 22.8472 58.6121 22.7789C58.4073 22.6424 58.2903 22.4669 58.3293 22.1647C58.3683 21.8234 58.5146 21.6187 58.7486 21.5309C58.9923 21.4237 59.1873 21.4139 59.5383 21.4139C59.8796 21.4139 60.2403 21.4822 60.6108 21.6089C60.7766 21.6674 60.8838 21.6089 60.9521 21.4237L61.1373 20.9264C61.1958 20.7314 61.1373 20.6047 60.9716 20.5559C60.4938 20.4097 60.0161 20.3317 59.5578 20.3317C58.8948 20.3317 58.3196 20.4877 57.8418 20.7997C57.3641 21.1117 57.0813 21.5699 57.0131 22.1647C56.8961 22.7984 57.1593 23.2469 57.4421 23.5297C57.6078 23.6954 58.0661 23.9197 58.2708 24.0074L58.7778 24.2024C59.4798 24.4754 59.7431 24.6802 59.6651 25.2164C59.5968 25.7332 59.2556 25.9867 58.6218 25.9867C58.1246 25.9867 57.5981 25.8697 57.0423 25.6259C56.8766 25.5577 56.7693 25.6064 56.7206 25.7917L56.5451 26.3474ZM63.6538 20.3707C63.6635 20.1659 63.5953 20.0879 63.4003 20.0977L62.6008 20.1464C62.4058 20.1562 62.2985 20.2537 62.2693 20.4584L61.5088 26.6692C61.4893 26.8642 61.577 26.9617 61.772 26.9617H62.5618C62.747 26.9617 62.8543 26.8642 62.8738 26.6692L63.3028 23.1689C63.6928 23.0422 64.034 22.9739 64.3168 22.9739C64.7848 22.9739 65.0285 23.1397 64.9505 23.7637L64.5898 26.6692C64.5703 26.8642 64.658 26.9617 64.8433 26.9617H65.6915C65.8768 26.9617 65.984 26.8642 66.0035 26.6692L66.3935 23.5199C66.53 22.3987 66.0718 21.8429 65.009 21.8429C64.5118 21.8429 63.9853 21.9404 63.4295 22.1257L63.6538 20.3707ZM68.8363 22.2524C68.8558 22.0574 68.7681 21.9599 68.5828 21.9599H67.7931C67.6078 21.9599 67.5006 22.0574 67.4811 22.2524L66.9351 26.6692C66.9156 26.8642 67.0033 26.9617 67.1886 26.9617H67.9783C68.1636 26.9617 68.2708 26.8642 68.2903 26.6692L68.8363 22.2524ZM67.6468 20.8972C67.6176 21.0922 67.7053 21.1897 67.8906 21.1897H68.6803C68.8656 21.1897 68.9728 21.0922 69.0021 20.8972L69.1093 20.0392C69.1288 19.8442 69.0411 19.7467 68.8558 19.7467H68.0661C67.8808 19.7467 67.7736 19.8442 67.7541 20.0392L67.6468 20.8972ZM74.0467 20.2439C74.1052 20.0489 74.037 19.9222 73.8322 19.8734C73.5105 19.8052 73.1985 19.7662 72.906 19.7662C72.2722 19.7662 71.7165 19.9222 71.2582 20.2342C70.8 20.5462 70.5367 21.0337 70.449 21.6967L70.41 21.9599H69.7567C69.5715 21.9599 69.4642 22.0574 69.4447 22.2524L69.396 22.6034C69.3765 22.7984 69.4642 22.8959 69.6495 22.8959H70.293L69.825 26.6692C69.8055 26.8642 69.8932 26.9617 70.0785 26.9617H70.8682C71.0535 26.9617 71.1607 26.8642 71.1802 26.6692L71.6482 22.8959H72.8475C73.0425 22.8959 73.1497 22.7984 73.179 22.6034L73.2375 22.2524C73.2667 22.0574 73.179 21.9599 72.9937 21.9599H71.7555L71.775 21.8234C71.8627 21.1702 72.2332 20.8387 72.8962 20.8387C73.1205 20.8387 73.3545 20.8582 73.5982 20.9069C73.764 20.9362 73.881 20.8582 73.9297 20.6729L74.0467 20.2439ZM73.9403 25.3529C73.8916 25.7137 73.8818 25.8502 73.8916 26.1719C73.9013 26.3279 73.9306 26.4547 73.9793 26.5424C74.1548 26.8544 74.4473 27.0884 75.2176 27.0884C75.5101 27.0884 75.7928 27.0494 76.0561 26.9714C76.2316 26.9227 76.3193 26.7959 76.3096 26.5912L76.2998 26.2109C76.2901 26.0257 76.2023 25.9379 76.0366 25.9672C75.8708 25.9964 75.7246 26.0062 75.6173 26.0062C75.3053 26.0062 75.2371 25.8599 75.2761 25.4797L75.5978 22.9057H76.6216C76.8166 22.9057 76.9238 22.8082 76.9531 22.6132L77.0311 22.2524C77.0701 22.0574 76.9921 21.9599 76.8068 21.9599H75.7148L75.8416 21.0044C75.8513 20.7997 75.7831 20.7119 75.5783 20.7412L74.8081 20.8094C74.6228 20.8192 74.5156 20.9167 74.4863 21.1214L74.3791 21.9697H73.7843C73.5991 21.9697 73.4918 22.0672 73.4723 22.2622L73.4236 22.6132C73.4041 22.8082 73.4918 22.9057 73.6771 22.9057H74.2426L73.9403 25.3529ZM78.4897 26.9617C78.2654 27.6344 77.7487 28.0732 77.0857 28.0732C76.9589 28.0732 76.8614 28.0634 76.7932 28.0537C76.6079 28.0244 76.5397 28.0732 76.4909 28.2779L76.3837 28.6679C76.3154 28.8629 76.4129 29.0092 76.5787 29.0482C76.7834 29.0872 76.9882 29.1067 77.1734 29.1067C77.7487 29.1067 78.2362 28.9214 78.6262 28.5412C79.0259 28.1609 79.4257 27.5077 79.8254 26.5717L81.7169 22.2427C81.7852 22.0574 81.7267 21.9599 81.5414 21.9599H80.8004C80.6152 21.9599 80.4884 22.0574 80.4202 22.2427L79.0454 25.8599L78.4507 22.2427C78.4117 22.0574 78.2947 21.9599 78.1094 21.9599H77.3782C77.1929 21.9599 77.1149 22.0574 77.1539 22.2427L78.0119 26.6789C78.0412 26.8642 78.1484 26.9617 78.3434 26.9617H78.4897Z" fill="#FFCF19"/>
</mask>
<g mask="url(#mask0_66_2113)">
<rect x="-24.1729" y="-12.0432" width="517.986" height="257.419" rx="8" fill="#5FD068"/>
<path opacity="0.4" d="M147.124 107.407L377.191 305.577C393.336 319.732 417.553 319.732 433.698 305.577C449.843 291.422 449.843 270.19 433.698 256.035L242.586 85.059C239.032 81.8789 239.032 76.3146 242.586 73.1345L433.698 -97.8411C449.843 -111.996 449.843 -133.229 433.698 -147.384C425.626 -154.461 417.553 -158 405.444 -158C393.336 -158 385.263 -154.461 377.191 -147.384L147.124 50.7867C130.979 68.4805 130.979 89.713 147.124 107.407C147.124 103.868 147.124 103.868 147.124 107.407Z" fill="#4B8673"/>
</g>
</svg>
