<svg width="390" height="291" viewBox="0 0 390 291" fill="none" xmlns="http://www.w3.org/2000/svg">
<path d="M141.007 278.077C188.969 278.077 258.484 320.776 336.607 250.944C414.729 181.113 387.732 153.568 374.923 56.4502C360.49 -52.9772 222.781 32.5254 120.643 20.7213C4.67855 7.31915 55.8008 105.074 14.2694 147.787C-27.262 190.501 33.8293 243.154 46.4227 250.944C56.4974 257.177 93.0452 278.077 141.007 278.077Z" fill="#EBEBEB" fill-opacity="0.25"/>
<path d="M277.501 236.068H76.5664C76.0763 250.354 74.8626 261.746 74.6992 263.194H278.318C277.688 253.646 277.455 244.542 277.501 236.068Z" fill="#98D8EA"/>
<path d="M289.358 136.295C289.358 140.964 286.277 164.051 283.803 181.443H283.453C281.534 188.048 280.221 194.815 279.532 201.659H75.726C75.1524 194.406 73.5329 187.275 70.918 180.486C67.3236 160.737 62.0254 135.875 62.0254 135.875C65.1763 132.373 155.526 134.685 179.753 134.428H181.433C202.836 134.031 289.358 136.295 289.358 136.295Z" fill="#C6E8EF"/>
<path d="M70.731 181.722C70.731 181.396 70.7309 181.069 70.5209 180.742C70.2222 179.571 69.816 178.43 69.3073 177.334C65.8763 169.84 58.3141 165.475 51.0787 167.366C48.0557 168.16 45.3903 169.953 43.5163 172.455C41.94 174.708 40.8588 177.27 40.3441 179.972C39.8294 182.673 39.8927 185.453 40.53 188.128C41.1673 190.804 42.3641 193.313 44.0414 195.493C45.7188 197.672 47.8388 199.471 50.2617 200.771C53.2815 202.308 56.756 202.698 60.0412 201.868C68.0235 199.791 72.6449 190.897 70.731 181.722Z" fill="#C6E8EF"/>
<path d="M51.0789 167.366C58.3144 165.475 65.8766 169.84 69.3076 177.334C69.9049 178.344 70.4426 179.389 70.918 180.462L67.4636 162.417C47.0643 158.425 43.5166 172.455 43.5166 172.455C45.3906 169.953 48.056 168.16 51.0789 167.366Z" fill="#98D8EA"/>
<path d="M75.7256 201.682C76.0523 204.833 76.2857 208.078 76.4491 211.346H278.551C278.831 207.938 279.158 204.74 279.531 201.752C263.473 202.125 93.7908 201.728 75.7256 201.682Z" fill="#9DD9E1"/>
<path d="M76.4492 211.346C76.8927 219.703 76.8227 228.317 76.4492 236.068H277.384C277.384 227.033 277.828 218.723 278.435 211.346H76.4492Z" fill="#98D8EA"/>
<path d="M76.449 211.346C76.2856 208.078 76.0522 204.833 75.7255 201.682C75.185 194.438 73.6131 187.308 71.0575 180.509C71.0575 180.509 71.0575 180.976 71.0575 180.509C70.5821 179.436 70.0443 178.391 69.447 177.381C69.9557 178.477 70.3619 179.618 70.6606 180.789C70.6606 181.116 70.8007 181.443 70.8707 181.77C72.7846 190.944 68.1632 199.838 60.1809 201.915C56.8957 202.745 53.4212 202.355 50.4014 200.818C56.3303 221.117 58.5831 242.312 57.0534 263.404H74.7918V263.24C74.9552 261.77 76.1689 250.401 76.659 236.115C76.8224 228.318 76.8925 219.704 76.449 211.346Z" fill="#98D8EA"/>
<path d="M311.554 193.979C309.816 196.876 307.19 199.136 304.066 200.423C300.942 201.71 297.487 201.955 294.213 201.122C286.37 198.787 281.936 190.15 283.943 181.419H283.453C281.533 188.025 280.221 194.791 279.532 201.635C279.532 201.635 280.302 201.635 279.532 201.635C279.158 204.623 278.831 207.822 278.551 211.23C277.944 218.607 277.571 226.917 277.501 235.951C277.501 244.425 277.688 253.529 278.318 263.077H299.044C299.044 263.077 294.959 221.781 311.554 193.979Z" fill="#98D8EA"/>
<path d="M303.876 168.113C307.02 169.046 309.748 171.032 311.601 173.739C307.797 166.876 299.488 156.114 286.534 161.717L283.453 181.466C283.867 179.999 284.504 178.606 285.344 177.334C286.842 173.852 289.526 171.014 292.92 169.326C296.313 167.637 300.195 167.208 303.876 168.113Z" fill="#98D8EA"/>
<path d="M313.981 178.875C313.302 177.142 312.523 175.451 311.647 173.809C309.794 171.102 307.066 169.116 303.922 168.183C300.227 167.285 296.334 167.732 292.939 169.443C289.543 171.154 286.867 174.017 285.39 177.521C284.93 178.466 284.555 179.45 284.269 180.462C284.154 180.838 284.061 181.22 283.989 181.606C281.982 190.337 286.323 198.997 294.259 201.308C297.533 202.141 300.989 201.896 304.113 200.609C307.237 199.322 309.863 197.063 311.601 194.165C312.616 192.613 313.402 190.922 313.935 189.146C314.918 185.795 314.934 182.234 313.981 178.875Z" fill="#C6E8EF"/>
<path d="M181.9 201.682H181.27L179.753 134.451H180.383L181.9 201.682Z" fill="#3883C4"/>
<path d="M181.806 235.554C181.768 235.554 181.729 235.546 181.694 235.531C181.658 235.515 181.626 235.493 181.6 235.464C181.573 235.436 181.553 235.402 181.541 235.365C181.528 235.328 181.523 235.289 181.526 235.251L181.316 211.346C181.316 211.266 181.348 211.189 181.405 211.132C181.462 211.075 181.539 211.043 181.62 211.043C181.7 211.043 181.777 211.075 181.834 211.132C181.891 211.189 181.923 211.266 181.923 211.346L182.11 235.251C182.113 235.289 182.108 235.328 182.096 235.365C182.083 235.402 182.063 235.436 182.037 235.464C182.01 235.493 181.978 235.515 181.943 235.531C181.907 235.546 181.869 235.554 181.83 235.554H181.806Z" fill="#3883C4"/>
<path d="M277.407 236.091H76.6823C76.6019 236.091 76.5247 236.059 76.4678 236.002C76.4109 235.945 76.3789 235.868 76.3789 235.787C76.3788 235.749 76.3868 235.71 76.4023 235.675C76.4178 235.639 76.4406 235.607 76.4691 235.581C76.4976 235.554 76.5312 235.534 76.5679 235.522C76.6047 235.509 76.6436 235.504 76.6823 235.507H277.407C277.446 235.504 277.485 235.509 277.522 235.522C277.559 235.534 277.592 235.554 277.621 235.581C277.649 235.607 277.672 235.639 277.687 235.675C277.703 235.71 277.711 235.749 277.711 235.787C277.711 235.868 277.679 235.945 277.622 236.002C277.565 236.059 277.488 236.091 277.407 236.091Z" fill="#3883C4"/>
<path d="M298.274 194.515C298.002 194.537 297.729 194.537 297.457 194.515C294.05 193.908 293.163 190.01 293.443 186.882C293.793 182.866 296.057 178.618 299.581 178.618C299.876 178.584 300.174 178.584 300.468 178.618C303.923 179.295 304.763 183.287 304.459 186.391C304.063 190.22 301.775 194.515 298.274 194.515ZM299.581 179.131C296.43 179.131 294.376 183.1 294.026 186.835C293.793 189.73 294.563 193.278 297.574 193.838C297.807 193.861 298.041 193.861 298.274 193.838C301.402 193.838 303.479 189.916 303.853 186.251C304.133 183.357 303.386 179.738 300.352 179.248C300.102 179.154 299.844 179.084 299.581 179.038V179.131Z" fill="#3883C4"/>
<path d="M55.6532 194.515C50.9852 194.515 48.8147 189.66 48.3012 185.504C47.7877 181.349 48.908 176.61 52.0589 175.817C52.4534 175.703 52.8623 175.648 53.2726 175.653C57.5205 175.653 61.395 181.279 61.9785 186.298C62.4919 190.477 60.7181 193.465 57.3104 194.305C56.7688 194.443 56.2121 194.513 55.6532 194.515ZM53.3192 176.26C52.9567 176.259 52.5958 176.306 52.2457 176.4C49.4449 177.1 48.4645 181.466 48.9546 185.411C49.4448 189.356 51.7555 193.908 55.7 193.908C56.2031 193.9 56.704 193.837 57.1938 193.721C61.6751 192.624 61.6517 188.212 61.4417 186.368C60.7882 181.699 57.2171 176.353 53.2726 176.353L53.3192 176.26Z" fill="#3883C4"/>
<path d="M74.792 263.497C74.7117 263.481 74.6397 263.437 74.5886 263.373C74.5374 263.309 74.5103 263.229 74.5119 263.147C76.7548 241.229 76.9111 219.147 74.9788 197.2C74.5307 191.81 73.2634 186.52 71.2209 181.513C72.3646 188.283 70.194 197.854 63.1219 201.052C54.9996 204.81 50.3783 201.052 50.1916 201.052C50.1618 201.025 50.1378 200.993 50.1215 200.957C50.1051 200.921 50.0967 200.881 50.0967 200.842C50.0967 200.802 50.1051 200.763 50.1215 200.726C50.1378 200.69 50.1618 200.658 50.1916 200.632C50.2504 200.582 50.3247 200.555 50.4015 200.555C50.4784 200.555 50.5528 200.582 50.6117 200.632C50.6117 200.632 55.1395 204.18 62.9118 200.632C70.6841 197.083 72.2479 185.365 69.9138 178.945C69.8927 178.876 69.8951 178.802 69.9204 178.734C69.9457 178.667 69.9926 178.609 70.0539 178.571C70.109 178.524 70.1795 178.498 70.2523 178.498C70.3252 178.498 70.3956 178.524 70.4508 178.571C73.4712 184.36 75.2218 190.727 75.5856 197.247C77.5182 219.233 77.3619 241.353 75.1188 263.31C75.0972 263.377 75.0518 263.432 74.9914 263.467C74.931 263.501 74.8599 263.512 74.792 263.497Z" fill="#3883C4"/>
<path d="M278.318 263.497C278.243 263.492 278.172 263.462 278.116 263.411C278.061 263.36 278.025 263.291 278.014 263.217C276.821 246.898 276.821 230.513 278.014 214.194C280.068 189.66 283.336 182.47 283.476 182.189C283.507 182.121 283.562 182.066 283.631 182.036C283.7 182.005 283.778 182.002 283.849 182.026C283.917 182.052 283.974 182.102 284.008 182.166C284.042 182.231 284.052 182.305 284.036 182.376C283.617 184.995 283.672 187.668 284.199 190.267C284.668 192.802 285.861 195.148 287.633 197.02C289.406 198.893 291.683 200.212 294.189 200.818C307.236 204.53 312.208 192.181 312.418 191.667C312.444 191.594 312.498 191.534 312.567 191.499C312.637 191.465 312.717 191.458 312.791 191.48C312.866 191.512 312.926 191.57 312.961 191.643C312.995 191.716 313.001 191.8 312.978 191.877C312.978 192.017 307.61 205.277 294.026 201.402C283.896 198.53 282.939 189.333 283.103 184.781C280.637 194.415 279.112 204.265 278.551 214.194C277.352 230.513 277.352 246.898 278.551 263.217C278.554 263.257 278.55 263.297 278.537 263.335C278.525 263.373 278.505 263.408 278.479 263.438C278.453 263.469 278.421 263.494 278.386 263.512C278.35 263.53 278.311 263.541 278.271 263.544L278.318 263.497Z" fill="#3883C4"/>
<path d="M279.531 201.752H75.7256C93.7908 201.729 263.473 202.125 279.531 201.752Z" fill="#938B8B"/>
<path d="M278.598 211.65H76.4489C76.3685 211.65 76.2913 211.618 76.2344 211.561C76.1775 211.504 76.1455 211.427 76.1455 211.346C76.1455 211.266 76.1775 211.189 76.2344 211.132C76.2913 211.075 76.3685 211.043 76.4489 211.043H278.598C278.678 211.043 278.755 211.075 278.812 211.132C278.869 211.189 278.901 211.266 278.901 211.346C278.901 211.427 278.869 211.504 278.812 211.561C278.755 211.618 278.678 211.65 278.598 211.65Z" fill="#3883C4"/>
<path d="M350.369 268.399C350.369 271.691 341.5 274.469 329.363 275.402C326.609 275.612 323.715 275.729 320.681 275.729C304.342 275.729 290.922 272.438 290.922 268.422V265.084V264.174L291.785 216.902C291.785 220.801 304.693 223.905 320.611 223.905C325.75 223.933 330.885 223.566 335.968 222.808C344.067 221.548 349.436 219.353 349.436 216.832L350.276 263.147V264.01L350.369 268.399Z" fill="#F79738"/>
<path d="M350.369 268.399C350.369 271.691 341.5 274.469 329.363 275.403C333.681 259.972 335.338 238.542 336.039 222.878C344.138 221.618 349.506 219.424 349.506 216.902L350.346 263.217V264.081L350.369 268.399Z" fill="#E4822F"/>
<path d="M268.516 250.541L266.812 251.031C266.812 251.031 255.585 237.305 249.423 229.718C243.262 222.131 234.696 213.377 230.448 204.156C226.76 196.243 218.778 174.906 216.771 169.467C223.026 167.413 226.9 164.238 228.627 159.709C231.568 152.029 228.627 143.368 226.293 138.396C225.36 136.552 224.123 134.171 222.956 131.906C222.769 131.51 222.582 131.159 222.372 130.786L220.225 126.584C220.142 126.459 220.072 126.326 220.015 126.187C219.781 125.72 219.595 125.347 219.455 125.113C219.398 125.025 219.352 124.931 219.315 124.833C219.548 124.666 219.767 124.479 219.968 124.273L220.622 123.713C221.835 122.625 222.981 121.463 224.053 120.234L224.286 120.444C229.164 124.81 232.548 134.007 234.742 143.135C236.186 149.195 237.254 155.338 237.94 161.53C239.154 172.642 241.674 200.024 241.674 200.024C245.489 200.857 249.013 202.691 251.885 205.337C254.756 207.983 256.871 211.347 258.012 215.081C258.479 216.482 259.296 219.05 260.346 222.085C263.497 232.893 268.516 250.541 268.516 250.541Z" fill="#D64E27"/>
<path d="M199.615 209.805C205.963 217.976 204.283 227.897 201.015 238.589C197.981 248.673 192.333 264.454 192.333 264.454L190.442 264.057L188.995 263.754C188.995 263.754 186.964 222.925 186.661 210.506C186.311 199.394 185.307 176.797 185.237 171.801C187.582 172.258 189.967 172.477 192.356 172.455C194.48 172.455 197.024 172.455 200.198 172.221C201.879 172.221 203.466 171.988 204.866 171.825L199.615 209.805Z" fill="#D64E27"/>
<path d="M268.516 250.541L266.812 251.031C266.812 251.031 255.585 237.305 249.423 229.718C243.262 222.131 234.696 213.377 230.448 204.156C226.76 196.243 218.778 174.906 216.771 169.467C223.026 167.413 226.9 164.238 228.627 159.709C231.568 152.029 228.627 143.368 226.293 138.396C225.36 136.552 224.123 134.171 222.956 131.906C222.769 131.51 222.582 131.159 222.372 130.786L220.225 126.584C220.142 126.459 220.072 126.326 220.015 126.187C219.781 125.72 219.595 125.347 219.455 125.113C219.398 125.025 219.352 124.931 219.315 124.833C219.548 124.666 219.767 124.479 219.968 124.273L220.622 123.713C221.835 122.625 222.981 121.463 224.053 120.234L224.286 120.444C229.164 124.81 232.548 134.007 234.742 143.135C232.603 151.984 231.268 161.008 230.751 170.097C230.144 184.851 235.863 204.46 235.863 204.46C235.863 204.46 247.533 220.054 260.253 222.178C263.497 232.893 268.516 250.541 268.516 250.541Z" fill="#C23F27"/>
<path d="M204.89 171.825L199.615 209.806C205.964 217.976 204.283 227.897 201.016 238.589C197.981 248.673 192.333 264.454 192.333 264.454L190.442 264.057C192.613 256.89 198.215 238.379 199.055 228.177C200.105 215.455 196.721 212.42 196.721 212.42C196.324 203.363 193.593 181.676 192.286 172.455C194.41 172.455 196.954 172.455 200.129 172.222C201.786 172.105 203.373 171.988 204.89 171.825Z" fill="#C23F27"/>
<path d="M226.27 73.9196C225.014 75.5345 223.964 77.2988 223.142 79.172C222.722 80.1525 222.208 81.2497 221.695 82.2301C220.691 84.2143 219.734 85.8951 219.734 85.8951L217.797 84.6812L217.447 84.4478L213.713 82.1134H213.549H213.409C209.581 86.49 207.503 92.1261 207.574 97.9406C207.574 103.497 210.118 108.842 212.732 110.663C215.066 112.227 219.734 116.289 221.158 117.433C220.878 117.853 220.504 118.367 220.084 118.904C217.155 122.489 213.515 125.43 209.395 127.541C205.72 129.419 201.787 130.741 197.724 131.463H197.328C193.69 132.164 189.993 132.516 186.288 132.513C184.779 126.523 183.665 120.441 182.95 114.305C182.764 112.204 182.553 110.056 182.343 108.072C181.9 104.057 181.48 100.742 181.363 99.8782C181.358 99.8083 181.358 99.7381 181.363 99.6681C180.733 99.458 180.149 99.2713 179.589 99.0378C177.806 98.4518 176.128 97.5849 174.618 96.47C173.825 95.9 173.166 95.1641 172.686 94.3135C172.206 93.4628 171.918 92.5179 171.84 91.5444C171.63 89.0232 175.458 82.2067 176.718 78.5184C177.699 75.6704 178.912 69.6943 179.706 66.5662C179.851 65.919 180.054 65.2862 180.313 64.6754C181.002 63.8129 181.784 63.0299 182.647 62.3409L183.277 61.7807C184.101 61.0501 184.88 60.2706 185.611 59.4463C185.635 59.6244 185.635 59.8051 185.611 59.9832C185.751 61.1271 185.938 64.3019 186.334 66.9864C186.384 68.3093 186.796 69.5931 187.525 70.6981C187.57 70.7141 187.62 70.7141 187.665 70.6981C187.705 70.7186 187.749 70.7293 187.793 70.7293C187.838 70.7293 187.882 70.7186 187.922 70.6981H188.038V70.5814C188.7 69.2014 189.208 67.7533 189.555 66.2628C189.742 65.6558 189.952 65.0255 190.162 64.4419C191.259 61.4072 193.477 57.4387 193.383 56.7617H194.62C196.464 56.7617 199.988 56.9251 202.509 57.1119C203.291 57.1577 204.07 57.2434 204.843 57.3687C207.177 57.8122 209.511 59.7031 213.946 63.2047C216.817 65.5391 220.948 69.3675 223.585 71.8187C223.684 71.9061 223.778 71.9997 223.865 72.0988L226.27 73.9196Z" fill="#F79738"/>
<path d="M185.751 59.9367C185.891 61.0805 186.078 64.2553 186.475 66.9399C184.23 67.4393 181.892 67.3264 179.706 66.6131C179.851 65.9659 180.054 65.3331 180.313 64.7222C181.002 63.8597 181.785 63.0768 182.647 62.3878L183.277 61.8276C184.101 61.097 184.881 60.3174 185.611 59.4932C185.675 59.635 185.722 59.7839 185.751 59.9367Z" fill="#E18726"/>
<path d="M202.766 56.9255C199.359 61.1062 194.882 64.2848 189.812 66.1231C189.999 65.5162 190.209 64.8859 190.419 64.3023C191.516 61.2675 193.734 57.299 193.64 56.6221H194.877C196.721 56.6221 200.246 56.7855 202.766 56.9255Z" fill="#E18726"/>
<path d="M212.732 110.687C215.066 112.251 219.735 116.313 221.158 117.456C220.878 117.877 220.505 118.39 220.085 118.927C216.233 116.219 207.878 109.986 206.081 106.041C204.759 102.777 204.434 99.1949 205.147 95.7465C202.497 97.0923 199.433 97.3762 196.581 96.5402C204.867 95.3263 208.251 92.0347 208.251 85.5451C208.528 82.407 208.031 79.2489 206.804 76.3475C206.804 76.3475 205.077 74.4333 209.138 75.4371C213.585 77.0396 217.751 79.3321 221.485 82.2302C220.481 84.2145 219.524 85.8953 219.524 85.8953L217.587 84.6814L217.237 84.4479L213.503 82.1135H213.339H213.199C209.371 86.4902 207.293 92.1262 207.364 97.9408C207.574 103.473 210.165 108.866 212.732 110.687Z" fill="#E18726"/>
<path d="M190.209 44.8566C190.289 43.5194 190.289 42.1787 190.209 40.8415C196.441 35.7525 192.17 29.1694 190.209 29.7064C188.249 30.2433 188.319 33.7682 188.319 33.7682L185.634 29.0994C184.942 27.9643 183.926 27.0621 182.717 26.5082C180.854 25.7267 178.842 25.3675 176.824 25.4562C174.807 25.545 172.833 26.0797 171.047 27.0218C167.102 29.3562 162.738 34.025 162.108 37.2231C160.653 36.7526 159.348 35.9073 158.324 34.7722C157.299 33.6371 156.592 32.2522 156.272 30.7568C155.129 26.088 159.073 17.264 164.488 14.416C169.903 11.568 177.442 14.416 177.769 14.416C177.582 14.2059 174.921 11.1945 177.769 11.1011C180.616 11.0078 187.525 15.233 189.229 16.2835L189.602 16.4936C189.602 16.4936 196.604 22.9599 198.075 29.613C199.545 36.266 197.818 45.8371 190.209 44.8566Z" fill="#B75349"/>
<path d="M190.209 44.8563C190.289 43.5191 190.289 42.1783 190.209 40.8411C196.441 35.7521 192.17 29.1691 190.209 29.706C188.248 30.2429 188.318 33.7679 188.318 33.7679L185.634 29.0991C184.942 27.964 183.926 27.0617 182.717 26.5079C191.586 25.6675 190.489 22.1659 189.252 16.3999L189.626 16.61C189.626 16.61 196.628 23.0763 198.098 29.7294C199.568 36.3824 197.818 45.8368 190.209 44.8563Z" fill="#A03E37"/>
<path d="M217.307 32.204C217.186 34.5659 216.414 36.8482 215.075 38.7974C213.736 40.7466 211.882 42.2864 209.721 43.2457C209.721 43.2457 211.378 38.5769 210.235 36.2425C209.348 34.375 208.788 34.5851 205.567 35.0986C202.346 35.6122 200.362 34.5851 199.638 30.4298C198.915 26.2746 197.654 19.2947 192.403 17.8007C193.29 15.1628 192.403 12.7584 190.652 12.5716C190.928 10.9967 191.49 9.4855 192.309 8.1129C193.04 6.82496 194.11 5.76141 195.401 5.03727C196.693 4.31313 198.158 3.95594 199.638 4.00434C206.407 4.00434 208.484 8.4864 209.511 13.482C209.949 17.2526 209.436 21.0729 208.017 24.5938C208.344 23.9319 208.89 23.4044 209.563 23.1019C210.236 22.7995 210.994 22.7409 211.705 22.9364C213.183 23.4735 214.48 24.4146 215.45 25.6526C216.42 26.8906 217.023 28.3759 217.19 29.9396C217.317 30.6873 217.356 31.4472 217.307 32.204Z" fill="#B75349"/>
<path d="M217.307 32.204C217.186 34.5659 216.414 36.8482 215.075 38.7975C213.736 40.7467 211.882 42.2864 209.721 43.2458C209.721 43.2458 211.378 38.577 210.235 36.2425C209.348 34.375 208.788 34.5851 205.567 35.0987C202.346 35.6123 200.362 34.5851 199.638 30.4299C198.915 26.2746 197.654 19.2948 192.403 17.8007C193.29 15.1629 192.403 12.7584 190.652 12.5717C190.928 10.9967 191.49 9.48556 192.309 8.11296C198.751 6.78235 204.236 7.66942 206.08 13.2253C208.274 19.8083 205.473 26.2746 206.617 26.4847C207.761 26.6948 214.739 22.633 217.19 30.0564C217.308 30.7657 217.347 31.486 217.307 32.204Z" fill="#A03E37"/>
<path d="M190.186 40.841C190.186 40.841 190.186 41.6814 190.186 42.9887C190.186 43.5489 190.186 44.1792 190.186 44.8562C190.179 48.1815 189.188 51.4304 187.339 54.1938C186.618 55.027 185.838 55.8072 185.005 56.5282C183.592 57.8971 181.857 58.8867 179.959 59.405C178.062 59.9234 176.064 59.9536 174.152 59.4929C168.223 58.4658 165.539 53.8904 164.396 47.8209C163.252 41.7514 162.062 37.2227 162.062 37.2227C162.692 34.0946 167.056 29.309 171.001 27.0213C172.676 26.1548 174.51 25.6358 176.391 25.4954C178.272 25.355 180.162 25.5961 181.947 26.2043C183.447 26.7306 184.722 27.7514 185.565 29.0989L188.249 33.7678C188.249 33.7678 188.249 30.2428 190.14 29.7059C192.03 29.169 196.418 35.7753 190.186 40.841Z" fill="#F1B5AB"/>
<path d="M190.186 40.8412C190.186 40.8412 190.186 41.6816 190.186 42.9889C190.186 43.5491 190.186 44.1794 190.186 44.8564C190.178 48.1817 189.188 51.4306 187.338 54.194C189.339 44.526 187.443 34.459 182.063 26.1812C183.563 26.7075 184.839 27.7283 185.681 29.0758L188.365 33.7446C188.365 33.7446 188.365 30.2197 190.256 29.6828C192.146 29.1458 196.418 35.7756 190.186 40.8412Z" fill="#F5948D"/>
<path d="M190.746 12.4313C188.412 12.2912 188.972 16.3297 188.972 16.3297C190.094 17.1024 191.087 18.0479 191.913 19.131C192.175 18.6616 192.394 18.1693 192.566 17.6604C193.383 14.9758 192.59 12.5714 190.746 12.4313Z" fill="#5F1D16"/>
<path d="M175.505 37.1061C175.505 37.1061 174.991 34.3048 177.325 33.978C179.319 34.0064 181.271 34.5448 182.997 35.5421C182.997 35.5421 176.765 35.332 175.505 37.1061Z" fill="#B75349"/>
<path d="M168.737 38.4136C168.228 38.0653 167.626 37.8789 167.01 37.8789C166.393 37.8789 165.791 38.0653 165.282 38.4136C164.735 38.8367 164.299 39.3879 164.014 40.0188C163.729 40.6498 163.604 41.3411 163.649 42.0319C164.528 41.2491 165.482 40.5533 166.496 39.9543C167.3 39.5298 168.052 39.0127 168.737 38.4136Z" fill="#B75349"/>
<path d="M219.221 124.74C220.911 123.323 222.473 121.761 223.889 120.071L219.221 124.74Z" fill="#5F1D16"/>
<path d="M226.27 138.49C225.336 136.645 224.099 134.264 222.932 132C222.746 131.603 222.535 131.253 222.349 130.879L220.201 126.678C220.119 126.552 220.049 126.419 219.992 126.281C219.758 125.814 219.571 125.44 219.431 125.207C219.375 125.118 219.328 125.025 219.291 124.927L223.539 120.795L224.029 120.328L221.159 117.48C218.155 121.755 214.148 125.226 209.488 127.588C199.499 132.957 186.475 132.654 186.475 132.654V135.478C186.475 135.478 186.475 135.712 186.475 135.898C185.891 140.124 182.601 167.413 182.601 170.564C182.601 170.564 182.881 171.241 185.308 171.778C190.256 172.567 195.285 172.709 200.269 172.198C201.95 172.198 203.537 171.965 204.937 171.802C208.991 171.442 212.996 170.66 216.887 169.467C223.142 167.413 227.017 164.238 228.744 159.709C231.638 152.006 228.837 143.322 226.27 138.49Z" fill="#263B7F"/>
<path d="M224.005 120.118C223.795 120.375 224.005 120.258 224.005 120.118C224.169 119.978 224.216 119.861 224.005 120.118Z" fill="#5F1D16"/>
<path d="M192.333 264.548C190.098 263.478 187.576 263.158 185.145 263.637C182.072 264.578 179.271 266.244 176.976 268.493H192.333V264.548Z" fill="#263B7F"/>
<path d="M266.625 250.704C266.522 254.975 265.895 259.216 264.758 263.333C263.754 265.061 260.09 266.368 259.903 267.115C259.716 267.862 266.672 268.586 268.586 267.115C270.5 265.644 274.561 255.443 274.561 255.443L268.329 249.514L266.625 250.704Z" fill="#263B7F"/>
<path d="M187.665 70.5583C187.315 70.3482 183.954 68.2239 181.434 69.2977C181.818 66.7138 182.451 64.173 183.324 61.7109C184.148 60.9803 184.928 60.2007 185.658 59.3765C185.682 59.5546 185.682 59.7352 185.658 59.9134C185.962 61.8743 186.358 69.5778 187.665 70.5583Z" fill="#263B7F"/>
<path d="M197.795 65.7261C194.131 65.9128 188.996 69.858 188.202 70.3949C189.115 68.3751 189.856 66.2824 190.419 64.1387C191.516 61.104 193.734 57.1355 193.64 56.4585H194.877L197.795 65.7261Z" fill="#263B7F"/>
<path d="M190.373 37.2929C190.32 37.3107 190.262 37.3107 190.209 37.2929C189.662 36.3497 189.374 35.2786 189.374 34.1882C189.374 33.0977 189.662 32.0266 190.209 31.0834C190.247 31.0583 190.292 31.0449 190.338 31.0449C190.383 31.0449 190.428 31.0583 190.466 31.0834C190.515 31.1038 190.556 31.1404 190.581 31.1871C190.607 31.2338 190.616 31.2878 190.606 31.3402C190.105 32.2225 189.841 33.22 189.841 34.2348C189.841 35.2497 190.105 36.2472 190.606 37.1295C190.626 37.147 190.642 37.1686 190.653 37.1927C190.664 37.2169 190.669 37.2431 190.669 37.2696C190.669 37.2961 190.664 37.3223 190.653 37.3464C190.642 37.3706 190.626 37.3921 190.606 37.4096L190.373 37.2929Z" fill="#983222"/>
<path d="M189.883 35.4957C189.841 35.4934 189.802 35.4789 189.768 35.454C189.735 35.429 189.71 35.3948 189.696 35.3556C189.663 35.3209 189.645 35.275 189.645 35.2272C189.645 35.1795 189.663 35.1335 189.696 35.0988C189.696 35.0988 190.56 34.772 190.443 34.095C190.443 33.8616 190.28 33.8149 190.256 33.8149C190.146 33.7674 190.027 33.7429 189.906 33.7429C189.786 33.7429 189.667 33.7674 189.556 33.8149C189.518 33.8494 189.468 33.8684 189.416 33.8684C189.364 33.8684 189.315 33.8494 189.276 33.8149C189.246 33.7745 189.229 33.7254 189.229 33.6748C189.229 33.6243 189.246 33.5752 189.276 33.5348C189.62 33.3947 190.006 33.3947 190.35 33.5348C190.456 33.5949 190.548 33.6788 190.617 33.7801C190.685 33.8813 190.73 33.9971 190.747 34.1184C190.773 34.442 190.685 34.7647 190.497 35.0295C190.309 35.2944 190.034 35.4843 189.72 35.5657C189.72 35.5657 189.906 35.4957 189.883 35.4957Z" fill="#983222"/>
<path d="M161.827 33.0911C161.778 33.0911 161.73 33.0714 161.695 33.0364C161.66 33.0013 161.641 32.9538 161.641 32.9043C161.641 32.7876 161.384 29.7295 162.318 28.7024C162.335 28.6825 162.357 28.6666 162.381 28.6557C162.405 28.6448 162.431 28.6392 162.458 28.6392C162.484 28.6392 162.51 28.6448 162.534 28.6557C162.559 28.6666 162.58 28.6825 162.598 28.7024C162.618 28.722 162.634 28.7455 162.645 28.7716C162.657 28.7977 162.662 28.8258 162.662 28.8541C162.662 28.8825 162.657 28.9105 162.645 28.9366C162.634 28.9627 162.618 28.9862 162.598 29.0059C162.034 30.2227 161.831 31.5758 162.014 32.9043C162.017 32.9307 162.015 32.9575 162.007 32.983C161.999 33.0084 161.986 33.0318 161.968 33.0517C161.951 33.0716 161.929 33.0875 161.905 33.0983C161.88 33.1091 161.854 33.1146 161.827 33.1144V33.0911Z" fill="#993E3A"/>
<path d="M165.819 21.9092C165.786 21.8746 165.768 21.8286 165.768 21.7808C165.768 21.7331 165.786 21.6871 165.819 21.6524C166.668 20.2659 167.806 19.0794 169.156 18.1742C169.191 18.1413 169.237 18.123 169.285 18.123C169.332 18.123 169.378 18.1413 169.413 18.1742C169.424 18.2002 169.43 18.2282 169.431 18.2565C169.431 18.2849 169.425 18.313 169.414 18.3392C169.404 18.3653 169.387 18.389 169.367 18.4088C169.347 18.4286 169.323 18.4441 169.296 18.4543C167.971 19.3143 166.842 20.4437 165.982 21.7692C165.97 21.8051 165.948 21.8371 165.92 21.8617C165.891 21.8864 165.856 21.9028 165.819 21.9092Z" fill="#993E3A"/>
<path d="M181.293 22.1658H181.153C179.099 20.4617 173.614 20.9986 173.568 20.9986C173.539 21.0058 173.51 21.0065 173.482 21.0004C173.453 20.9943 173.427 20.9817 173.404 20.9636C173.382 20.9455 173.363 20.9223 173.351 20.896C173.339 20.8696 173.333 20.8408 173.334 20.8118C173.333 20.7572 173.351 20.7039 173.385 20.6613C173.419 20.6186 173.467 20.5893 173.521 20.5784C173.754 20.5784 179.239 20.0181 181.41 21.839C181.43 21.8565 181.446 21.878 181.457 21.9022C181.467 21.9263 181.473 21.9525 181.473 21.979C181.473 22.0055 181.467 22.0317 181.457 22.0559C181.446 22.08 181.43 22.1016 181.41 22.1191C181.41 22.1191 181.34 22.1658 181.293 22.1658Z" fill="#993E3A"/>
<path d="M184.491 21.5356C184.462 21.55 184.43 21.5575 184.398 21.5575C184.365 21.5575 184.333 21.55 184.304 21.5356C183.466 20.4146 182.468 19.4234 181.34 18.5943C181.32 18.5747 181.303 18.5511 181.292 18.525C181.281 18.4989 181.275 18.4709 181.275 18.4425C181.275 18.4142 181.281 18.3861 181.292 18.36C181.303 18.334 181.32 18.3104 181.34 18.2908C181.379 18.2563 181.429 18.2373 181.48 18.2373C181.532 18.2373 181.582 18.2563 181.62 18.2908C182.803 19.1396 183.844 20.172 184.701 21.3489C184.736 21.3874 184.755 21.4373 184.755 21.4889C184.755 21.5406 184.736 21.5905 184.701 21.629L184.491 21.5356Z" fill="#993E3A"/>
<path d="M159.821 33.091H159.657C158.28 31.6437 158.98 27.8386 159.12 27.6285C159.154 27.595 159.197 27.5735 159.244 27.5676C159.29 27.5617 159.338 27.5716 159.378 27.5959C159.419 27.6201 159.45 27.6572 159.466 27.7012C159.483 27.7453 159.485 27.7936 159.471 27.8386C159.331 28.1888 158.817 31.597 159.961 32.7875C159.993 32.8316 160.01 32.8847 160.01 32.9393C160.01 32.9938 159.993 33.047 159.961 33.091H159.821Z" fill="#993E3A"/>
<path d="M204.633 17.7073C204.584 17.7085 204.537 17.6929 204.499 17.6631C204.46 17.6333 204.433 17.5912 204.423 17.5439C204.423 17.5439 202.999 11.8246 199.194 10.5407C195.39 9.25673 194.526 11.7545 194.526 11.7779C194.519 11.8035 194.506 11.8272 194.488 11.8474C194.471 11.8676 194.449 11.8838 194.425 11.8948C194.4 11.9059 194.374 11.9116 194.347 11.9116C194.321 11.9115 194.294 11.9057 194.27 11.8946C194.218 11.8784 194.174 11.8425 194.148 11.7946C194.122 11.7467 194.115 11.6904 194.13 11.6378C194.13 11.6378 195.18 8.81319 199.288 10.1671C203.396 11.5211 204.726 17.1704 204.773 17.4272C204.782 17.4795 204.774 17.5335 204.748 17.5802C204.723 17.6269 204.682 17.6635 204.633 17.6839V17.7073Z" fill="#5F1D16"/>
<path d="M206.5 14.7659C206.45 14.7559 206.405 14.73 206.372 14.6921C206.338 14.6542 206.317 14.6063 206.313 14.5558C206.196 12.443 205.563 10.3912 204.47 8.57968C204.45 8.56216 204.434 8.5406 204.423 8.51645C204.412 8.49231 204.406 8.46612 204.406 8.43962C204.406 8.41313 204.412 8.38693 204.423 8.36278C204.434 8.33863 204.45 8.31708 204.47 8.29955C204.487 8.27968 204.509 8.26377 204.533 8.25286C204.557 8.24196 204.583 8.23633 204.61 8.23633C204.636 8.23633 204.662 8.24196 204.686 8.25286C204.71 8.26377 204.732 8.27968 204.75 8.29955C205.902 10.1659 206.56 12.2947 206.663 14.4857C206.674 14.5148 206.678 14.5459 206.676 14.5768C206.673 14.6077 206.663 14.6376 206.648 14.6643C206.632 14.6911 206.611 14.7141 206.585 14.7317C206.56 14.7492 206.531 14.7609 206.5 14.7659Z" fill="#5F1D16"/>
<path d="M194.387 15.3027C194.353 15.2642 194.334 15.2144 194.334 15.1627C194.334 15.111 194.353 15.0611 194.387 15.0226C194.387 15.0226 195.461 12.9683 196.721 13.0384C196.749 13.0384 196.776 13.0438 196.802 13.0544C196.827 13.0649 196.85 13.0804 196.87 13.0999C196.89 13.1194 196.905 13.1426 196.915 13.1681C196.926 13.1936 196.932 13.2209 196.932 13.2485C196.921 13.302 196.891 13.35 196.849 13.3841C196.806 13.4182 196.753 13.4363 196.698 13.4352C195.788 13.4352 194.924 14.6958 194.667 15.2094C194.642 15.2587 194.599 15.2961 194.547 15.3136C194.494 15.331 194.437 15.3272 194.387 15.3027Z" fill="#5F1D16"/>
<path d="M201.599 25.4574C201.574 25.4574 201.55 25.4525 201.527 25.4431C201.505 25.4337 201.484 25.42 201.467 25.4026C201.449 25.3853 201.436 25.3647 201.426 25.3421C201.417 25.3194 201.412 25.2951 201.412 25.2706C201.039 22.586 197.584 19.6213 196.534 18.8043C196.499 18.7658 196.48 18.7159 196.48 18.6642C196.48 18.6125 196.499 18.5627 196.534 18.5242C196.551 18.5043 196.573 18.4884 196.597 18.4775C196.621 18.4666 196.647 18.4609 196.674 18.4609C196.7 18.4609 196.727 18.4666 196.751 18.4775C196.775 18.4884 196.797 18.5043 196.814 18.5242C197.911 19.3879 201.482 22.4226 201.832 25.2706C201.839 25.3229 201.826 25.376 201.796 25.4192C201.766 25.4625 201.72 25.4928 201.669 25.504L201.599 25.4574Z" fill="#5F1D16"/>
<path d="M213.246 37.3165C213.194 37.3052 213.148 37.2749 213.118 37.2317C213.088 37.1884 213.075 37.1354 213.082 37.083C212.978 34.613 212.264 32.2071 211.005 30.0798C210.961 30.0427 210.935 29.9898 210.93 29.9329C210.926 29.876 210.944 29.8197 210.981 29.7763C211.019 29.733 211.071 29.7062 211.128 29.7018C211.185 29.6974 211.242 29.7158 211.285 29.753C212.637 31.94 213.394 34.4429 213.479 37.013C213.519 37.0439 213.545 37.0896 213.552 37.14C213.559 37.1903 213.545 37.2412 213.514 37.2814C213.483 37.3217 213.437 37.348 213.387 37.3546C213.337 37.3611 213.286 37.3474 213.246 37.3165Z" fill="#5F1D16"/>
<path d="M214.973 34.6316C214.919 34.6207 214.871 34.5914 214.837 34.5487C214.803 34.5061 214.785 34.4528 214.786 34.3982C214.951 32.6315 214.47 30.8648 213.432 29.4259C213.432 29.4259 213.432 29.4259 213.432 29.3092C213.413 29.2916 213.397 29.2701 213.386 29.2459C213.375 29.2218 213.369 29.1956 213.369 29.1691C213.369 29.1426 213.375 29.1164 213.386 29.0923C213.397 29.0681 213.413 29.0466 213.432 29.029C213.45 29.0092 213.471 28.9933 213.495 28.9824C213.52 28.9715 213.546 28.9658 213.572 28.9658C213.599 28.9658 213.625 28.9715 213.649 28.9824C213.673 28.9933 213.695 29.0092 213.712 29.029C214.799 30.5538 215.304 32.4168 215.136 34.2815C215.164 34.3121 215.181 34.3502 215.187 34.3909C215.193 34.4316 215.187 34.4732 215.17 34.5105C215.153 34.5478 215.125 34.5791 215.09 34.6007C215.055 34.6222 215.014 34.633 214.973 34.6316Z" fill="#5F1D16"/>
<path d="M174.781 54.054C174.781 54.054 180.92 51.0893 182.157 49.0117C182.275 51.2577 181.579 53.4709 180.196 55.2446C177.955 57.7424 174.781 54.054 174.781 54.054Z" fill="white"/>
<path d="M170.954 51.4393C170.362 51.4254 169.774 51.3392 169.204 51.1825C169.156 51.1618 169.117 51.1241 169.096 51.0766C169.074 51.0292 169.071 50.9754 169.087 50.9257C169.087 50.9257 169.6 48.9415 170.02 46.6771C170.311 45.8211 170.38 44.9053 170.221 44.0153C170.062 43.1253 169.68 42.2902 169.11 41.5881C169.076 41.5496 169.057 41.4997 169.057 41.4481C169.057 41.3964 169.076 41.3465 169.11 41.308C169.152 41.2718 169.206 41.252 169.262 41.252C169.317 41.252 169.371 41.2718 169.413 41.308C170.037 42.0503 170.462 42.9383 170.65 43.8894C170.838 44.8405 170.782 45.8236 170.487 46.7472C170.137 48.6147 169.74 50.2955 169.577 50.8324C170.449 51.1144 171.389 51.1144 172.261 50.8324C172.898 50.5964 173.423 50.1299 173.732 49.5251C173.77 49.5 173.814 49.4866 173.86 49.4866C173.905 49.4866 173.95 49.5 173.988 49.5251C174.021 49.5598 174.039 49.6057 174.039 49.6535C174.039 49.7013 174.021 49.7472 173.988 49.7819C173.826 50.1318 173.596 50.4461 173.312 50.7065C173.027 50.967 172.694 51.1684 172.331 51.2993C171.886 51.439 171.418 51.4867 170.954 51.4393Z" fill="#983222"/>
<path d="M197.818 131.486H197.421C194.779 124.627 192.565 117.611 190.793 110.477C189.789 106.648 188.739 103.474 187.805 100.789C187.012 98.4546 186.358 96.5403 185.868 94.6028C185.057 90.8 185.137 86.8609 186.101 83.0942L186.265 82.0437C186.732 79.3124 187.058 76.7212 187.338 74.4335C187.502 72.9628 187.665 71.6556 187.829 70.6284C187.868 70.6489 187.912 70.6596 187.957 70.6596C188.002 70.6596 188.046 70.6489 188.085 70.6284H188.202V70.5117C188.015 71.5855 187.852 73.0329 187.642 74.6436C187.362 76.978 187.058 79.5459 186.592 82.2771L186.405 83.3276C185.453 87.0407 185.373 90.9238 186.171 94.6728C186.638 96.5871 187.315 98.5479 188.085 100.812C189.019 103.567 190.093 106.695 191.096 110.547C192.901 117.659 195.146 124.653 197.818 131.486Z" fill="#993E3A"/>
<path d="M197.398 96.5869C197.166 96.617 196.93 96.617 196.698 96.5869C196.671 96.5871 196.645 96.5816 196.621 96.5708C196.596 96.56 196.575 96.5441 196.557 96.5242C196.539 96.5044 196.526 96.4809 196.518 96.4555C196.51 96.43 196.508 96.4032 196.511 96.3768C196.517 96.3252 196.542 96.2776 196.58 96.2431C196.619 96.2087 196.669 96.1897 196.721 96.1901C199.367 96.3379 201.985 95.5804 204.143 94.0424C205.418 93.1786 206.493 92.053 207.298 90.7407C208.103 89.4285 208.619 87.9597 208.811 86.4322C208.814 86.4052 208.822 86.3791 208.836 86.3557C208.85 86.3322 208.868 86.312 208.89 86.2965C208.913 86.2809 208.938 86.2704 208.965 86.2656C208.991 86.2608 209.019 86.2619 209.045 86.2688C209.072 86.2713 209.098 86.2797 209.121 86.2933C209.145 86.3069 209.165 86.3255 209.181 86.3477C209.196 86.3699 209.207 86.3953 209.211 86.4219C209.216 86.4486 209.215 86.4761 209.208 86.5023C209.01 88.0848 208.473 89.6062 207.636 90.9635C206.798 92.3207 205.679 93.4822 204.353 94.3692C202.32 95.8104 199.89 96.5852 197.398 96.5869Z" fill="#993E3A"/>
<path d="M182.694 100.182C181.682 100.123 180.691 99.8693 179.776 99.4347C179.743 99.4334 179.71 99.4242 179.681 99.4079C179.652 99.3916 179.628 99.3687 179.609 99.341C179.591 99.3133 179.579 99.2816 179.576 99.2486C179.572 99.2156 179.576 99.1821 179.588 99.151C179.599 99.1198 179.618 99.0919 179.643 99.0695C179.667 99.0471 179.697 99.0308 179.729 99.0221C179.761 99.0133 179.795 99.0123 179.827 99.0191C179.86 99.0259 179.89 99.0403 179.916 99.0612C180.852 99.567 181.911 99.8014 182.974 99.7382C183.024 99.7393 183.074 99.7554 183.115 99.7845C183.157 99.8136 183.189 99.8543 183.207 99.9016C183.214 99.9278 183.215 99.9552 183.21 99.9819C183.205 100.009 183.195 100.034 183.179 100.056C183.164 100.078 183.144 100.097 183.12 100.111C183.097 100.124 183.071 100.132 183.044 100.135C183.044 100.135 182.927 100.182 182.694 100.182Z" fill="#993E3A"/>
<path d="M213.712 82.1137H213.549H213.409L208.484 77.795C208.45 77.7565 208.431 77.7066 208.431 77.655C208.431 77.6033 208.45 77.5534 208.484 77.5149C208.502 77.495 208.523 77.4791 208.547 77.4682C208.571 77.4573 208.598 77.4517 208.624 77.4517C208.651 77.4517 208.677 77.4573 208.701 77.4682C208.725 77.4791 208.747 77.495 208.764 77.5149L213.666 81.7869C213.698 81.7983 213.726 81.8183 213.747 81.8446C213.769 81.8709 213.783 81.9026 213.787 81.9362C213.792 81.9698 213.788 82.0041 213.775 82.0354C213.761 82.0666 213.74 82.0937 213.712 82.1137Z" fill="#993E3A"/>
<path d="M224.169 71.9121C220.951 75.4888 218.758 79.8681 217.821 84.5879L217.471 84.3545C218.417 79.5776 220.644 75.1477 223.913 71.5386C224.007 71.6568 224.093 71.7816 224.169 71.9121Z" fill="#993E3A"/>
<path d="M224.169 120.328C222.71 122.026 221.101 123.588 219.361 124.997C217.259 126.711 215.036 128.271 212.709 129.665L212.359 129.899C209.148 131.886 205.697 133.455 202.089 134.568L201.692 134.708L199.989 135.128C197.145 135.755 194.242 136.076 191.329 136.085H190.069C188.787 136.043 187.509 135.926 186.241 135.735C186.241 135.548 186.241 135.408 186.241 135.315C190.772 135.975 195.387 135.785 199.849 134.754L201.622 134.311H201.832C208.149 132.216 214.005 128.927 219.081 124.623C219.315 124.456 219.533 124.269 219.734 124.063L220.388 123.503C221.427 122.558 222.409 121.553 223.329 120.491C223.469 120.328 223.609 120.141 223.772 119.978C223.912 119.838 224.006 119.698 223.772 119.978L224.169 120.328Z" fill="#A6DDEB"/>
<path d="M188.762 145.82C188.71 145.808 188.665 145.778 188.635 145.735C188.604 145.692 188.592 145.638 188.599 145.586C188.925 143.719 190.186 136.249 190.209 136.062C190.22 136.01 190.251 135.965 190.294 135.934C190.337 135.904 190.39 135.891 190.442 135.898C190.492 135.914 190.534 135.945 190.564 135.987C190.593 136.03 190.608 136.08 190.606 136.132C190.606 136.132 189.322 143.789 188.995 145.656C188.98 145.705 188.949 145.748 188.906 145.778C188.864 145.807 188.813 145.822 188.762 145.82Z" fill="#A6DDEB"/>
<path d="M203.77 145.819C203.722 145.814 203.677 145.793 203.643 145.759C203.609 145.725 203.588 145.68 203.583 145.633C203.28 141.934 202.647 138.27 201.692 134.684C201.684 134.635 201.694 134.585 201.719 134.542C201.745 134.499 201.785 134.467 201.832 134.451C201.858 134.44 201.886 134.435 201.914 134.436C201.942 134.438 201.97 134.445 201.995 134.459C202.019 134.472 202.04 134.491 202.057 134.514C202.073 134.537 202.084 134.563 202.089 134.591C203.046 138.2 203.679 141.888 203.98 145.609C203.98 145.661 203.961 145.711 203.927 145.75C203.892 145.789 203.845 145.814 203.793 145.819H203.77Z" fill="#A6DDEB"/>
<path d="M217.984 145.493C217.955 145.506 217.923 145.512 217.891 145.512C217.859 145.512 217.827 145.506 217.798 145.493C217.798 145.493 215.977 141.594 214.227 137.743C213.179 135.358 212.57 132.804 212.429 130.202C212.426 130.174 212.428 130.145 212.438 130.118C212.447 130.091 212.462 130.066 212.483 130.045C212.503 130.025 212.528 130.01 212.555 130.001C212.582 129.991 212.611 129.989 212.64 129.992C212.689 129.992 212.737 130.012 212.772 130.047C212.807 130.082 212.826 130.13 212.826 130.179C212.962 132.733 213.563 135.241 214.6 137.579C216.327 141.431 218.148 145.259 218.171 145.306C218.206 145.345 218.225 145.395 218.225 145.446C218.225 145.498 218.206 145.548 218.171 145.586L217.984 145.493Z" fill="#A6DDEB"/>
<path d="M167.803 44.553C168.247 45.837 168.107 47.0742 167.476 47.2843C166.846 47.4944 166.006 46.6307 165.539 45.3234C165.072 44.0161 165.259 42.8022 165.866 42.5688C166.473 42.3354 167.36 43.2458 167.803 44.553Z" fill="#1E1724"/>
<path d="M178.889 40.2575C179.356 41.5647 179.192 42.802 178.562 43.0121C177.932 43.2222 177.092 42.3351 176.648 41.0278C176.205 39.7206 176.345 38.5067 176.952 38.2966C177.559 38.0865 178.445 38.9502 178.889 40.2575Z" fill="#1E1724"/>
<path d="M182.437 108.142V109.73C182.437 109.73 179.193 117.106 176.579 121.658C174.178 125.079 171.162 128.023 167.686 130.342C166.076 132.14 164.395 134.031 163.508 133.517L163.345 133.377C162.528 132.467 164.255 130.156 164.255 130.156L161.431 131.44C161.431 131.44 161.011 135.081 160.007 134.801C159.004 134.521 159.214 129.946 160.007 128.638C160.801 127.331 164.675 126.304 164.675 126.304C164.675 126.304 167.009 121.168 169.833 114.095C171.83 108.356 173.345 102.461 174.361 96.4702H174.618C176.193 97.6744 177.95 98.62 179.823 99.2715L181.34 99.7851C181.34 99.7851 181.924 103.473 182.437 108.142Z" fill="#F1B5AB"/>
<path d="M182.437 108.142V109.73C182.437 109.73 179.192 117.106 176.578 121.658C174.177 125.079 171.162 128.023 167.686 130.342C166.075 132.14 164.395 134.031 163.508 133.517L166.985 129.759C168.293 128.358 177.185 116.406 178.492 111.644C179.311 107.569 179.756 103.427 179.823 99.2715L181.34 99.7851C181.34 99.7851 181.923 103.473 182.437 108.142Z" fill="#F5948D"/>
<path d="M291.062 239.593C277.362 239.593 268.983 213.914 261.957 186.158C255.189 159.289 244.662 144.139 227.601 125.58C211.146 107.652 200.363 108.982 187.922 112.577C176.252 115.962 167.663 130.272 166.916 132.186C166.836 132.806 166.513 133.367 166.018 133.748C165.524 134.129 164.898 134.298 164.279 134.217C163.66 134.137 163.098 133.814 162.717 133.319C162.336 132.824 162.168 132.199 162.248 131.58C162.248 129.012 173.008 111.924 186.755 107.932C200.503 103.94 213.013 102.353 231.312 122.289C248.91 141.431 259.787 157.095 266.812 184.967C270.593 199.954 279.369 234.737 291.226 234.737H291.739C292.057 234.698 292.379 234.725 292.686 234.816C292.993 234.907 293.278 235.06 293.523 235.266C293.768 235.472 293.968 235.726 294.111 236.012C294.254 236.299 294.337 236.612 294.353 236.931C294.397 237.262 294.369 237.599 294.271 237.918C294.173 238.237 294.008 238.532 293.787 238.782C293.566 239.032 293.294 239.232 292.989 239.367C292.684 239.503 292.353 239.572 292.019 239.569L291.062 239.593Z" fill="#A6D6B4"/>
<path d="M193.64 56.5516C193.64 57.1352 191.516 61.2205 190.419 64.2318C189.323 67.2432 188.622 71.2351 187.689 70.5814C186.382 69.671 185.962 61.8974 185.751 59.9365C185.776 59.7584 185.776 59.5778 185.751 59.3996C185.685 59.1156 185.583 58.841 185.448 58.5826C185.146 57.9255 184.745 57.3192 184.258 56.7851C185.094 56.017 185.874 55.19 186.592 54.3106C188.309 51.6221 189.201 48.4897 189.159 45.2998C190.206 47.3308 191.118 49.4285 191.89 51.5793C192.894 54.1005 193.594 56.2715 193.64 56.5516Z" fill="#F1B5AB"/>
<path d="M191.96 51.5793C190.339 54.4009 188.076 56.8003 185.354 58.5826C185.053 57.9255 184.651 57.3192 184.164 56.7851C185 56.017 185.78 55.19 186.498 54.3106C188.248 51.6323 189.173 48.4992 189.159 45.2998C190.23 47.329 191.166 49.4267 191.96 51.5793Z" fill="#F5948D"/>
<path d="M237.683 125.347C238.384 129.479 236.983 132.21 236.073 132.21C235.536 132.21 235.629 131.136 235.816 130.272C235.883 129.91 235.969 129.552 236.073 129.199L235.886 129.525C235.373 130.436 233.996 132.747 233.272 132.583C232.549 132.42 232.805 131.836 232.945 131.229C233.005 130.879 233.099 130.535 233.225 130.202L232.875 130.879C232.455 131.603 231.848 132.467 231.335 132.093C230.821 131.72 231.031 131.159 231.171 130.412C231.288 129.761 231.46 129.121 231.685 128.498C231.685 128.498 231.685 128.755 231.522 128.895C231.148 129.735 230.541 130.833 230.028 130.366C229.514 129.899 230.635 123.199 230.635 123.199C230.635 123.199 228.301 125.02 227.297 123.806C227.231 123.708 227.186 123.597 227.166 123.48C227.146 123.363 227.151 123.244 227.18 123.129C227.46 121.682 230.098 119.371 229.934 118.951C229.771 118.53 229.024 107.745 227.6 100.462C226.775 97.3662 226.437 94.1609 226.597 90.961C226.597 90.6108 221.019 87.2493 219.852 85.872C219.852 85.872 220.832 84.1445 221.859 82.1369C222.349 81.1565 222.862 80.106 223.259 79.1489C224.081 77.2756 225.131 75.5114 226.387 73.8965C229.962 77.223 233.3 80.7955 236.376 84.5881C236.376 84.5881 237.8 86.3155 237.987 92.9919C238.173 99.6683 236.19 118.437 236.19 118.437C236.844 120.703 237.343 123.012 237.683 125.347Z" fill="#F1B5AB"/>
<path d="M230.705 108.679C230.849 112.454 230.591 116.234 229.934 119.954C229.108 121.103 228.179 122.174 227.157 123.152C227.437 121.705 230.074 119.394 229.911 118.974C229.748 118.554 229.001 107.769 227.577 100.485C226.752 97.3895 226.413 94.1841 226.573 90.9842C226.573 90.634 220.995 87.2725 219.828 85.8952C219.828 85.8952 220.808 84.1677 221.835 82.1602C224.54 84.436 226.708 87.2819 228.184 90.494C229.913 96.3988 230.763 102.526 230.705 108.679Z" fill="#F5948D"/>
<path d="M231.562 128.877C231.601 128.758 231.642 128.639 231.684 128.522C231.684 128.522 231.684 128.733 231.562 128.877Z" fill="#993E3A"/>
<path d="M232.922 131.23C232.981 130.879 233.075 130.535 233.202 130.202L232.852 130.879C233.348 129.657 233.731 128.391 233.995 127.098H234.205C233.912 128.513 233.482 129.897 232.922 131.23Z" fill="#993E3A"/>
<path d="M235.839 130.272C235.906 129.91 235.991 129.552 236.096 129.198L235.909 129.525C236.279 128.578 236.492 127.577 236.539 126.561C236.539 126.561 236.539 126.561 236.656 126.561C236.602 127.836 236.326 129.092 235.839 130.272Z" fill="#993E3A"/>
<path d="M320.61 223.952C336.53 223.952 349.435 220.785 349.435 216.879C349.435 212.972 336.53 209.806 320.61 209.806C304.691 209.806 291.785 212.972 291.785 216.879C291.785 220.785 304.691 223.952 320.61 223.952Z" fill="#FFC40C"/>
<path d="M320.611 212.537C310.878 212.537 302.966 214.475 302.966 216.879C302.966 219.284 310.878 221.198 320.611 221.198C330.344 221.198 338.256 219.26 338.256 216.879C338.256 214.498 330.367 212.537 320.611 212.537Z" fill="#F79738"/>
<path d="M292.975 273.558C293.292 272.781 293.827 272.113 294.515 271.634C295.203 271.154 296.016 270.885 296.854 270.857C297.692 270.83 298.52 271.046 299.238 271.479C299.957 271.913 300.534 272.545 300.9 273.299C301.267 274.054 301.407 274.898 301.304 275.731C301.201 276.563 300.859 277.348 300.32 277.99C299.78 278.632 299.066 279.105 298.264 279.35C297.462 279.595 296.606 279.602 295.8 279.371C294.67 278.953 293.746 278.116 293.219 277.032C292.693 275.949 292.606 274.704 292.975 273.558Z" fill="#5F1D16"/>
<path d="M296.85 277.106C296.719 277.129 296.584 277.129 296.453 277.106C296.229 277.032 296.023 276.912 295.847 276.756C295.67 276.6 295.527 276.409 295.426 276.196C295.18 275.582 295.18 274.896 295.426 274.282C295.528 273.796 295.782 273.355 296.151 273.023C296.521 272.692 296.986 272.487 297.48 272.438H297.877C298.105 272.51 298.315 272.63 298.493 272.792C298.67 272.953 298.81 273.151 298.904 273.371C299.185 273.962 299.235 274.636 299.044 275.262C298.935 275.77 298.661 276.227 298.263 276.561C297.866 276.895 297.369 277.087 296.85 277.106Z" fill="#9FD8D4"/>
<path d="M350.205 264.057C340.791 267.998 330.74 270.197 320.54 270.547H317.086C310.129 270.618 303.207 269.553 296.593 267.395C294.61 266.759 292.675 265.978 290.805 265.061V264.15C300.039 268.561 310.263 270.492 320.47 269.753C330.699 269.396 340.776 267.173 350.205 263.193V264.057Z" fill="#CE615A"/>
<path d="M338.115 230.325H337.205C337.166 230.325 337.128 230.317 337.092 230.302C337.056 230.286 337.025 230.264 336.998 230.235C336.972 230.206 336.952 230.173 336.939 230.136C336.926 230.099 336.922 230.06 336.925 230.022C336.925 229.941 336.957 229.864 337.014 229.807C337.071 229.75 337.148 229.718 337.228 229.718C340.268 229.823 343.309 229.557 346.284 228.925C346.321 228.91 346.36 228.903 346.399 228.905C346.439 228.907 346.477 228.917 346.513 228.934C346.548 228.952 346.579 228.977 346.604 229.007C346.629 229.038 346.647 229.073 346.658 229.111C346.689 229.186 346.689 229.269 346.658 229.344C346.628 229.418 346.568 229.477 346.494 229.508C343.747 230.137 340.932 230.411 338.115 230.325Z" fill="#CE615A"/>
<path d="M338.139 233.313H337.205C337.165 233.31 337.126 233.299 337.09 233.281C337.055 233.263 337.023 233.238 336.997 233.208C336.971 233.177 336.951 233.142 336.939 233.104C336.926 233.066 336.922 233.026 336.925 232.986C336.925 232.947 336.933 232.909 336.948 232.873C336.964 232.838 336.986 232.806 337.015 232.779C337.043 232.753 337.077 232.733 337.114 232.72C337.151 232.708 337.19 232.703 337.228 232.706C340.268 232.8 343.307 232.534 346.284 231.912C346.321 231.898 346.36 231.891 346.399 231.893C346.439 231.895 346.477 231.904 346.513 231.922C346.548 231.94 346.579 231.965 346.604 231.995C346.629 232.026 346.647 232.061 346.658 232.099C346.673 232.134 346.68 232.172 346.68 232.21C346.68 232.248 346.672 232.286 346.657 232.321C346.641 232.356 346.619 232.388 346.591 232.414C346.563 232.44 346.53 232.46 346.494 232.473C343.756 233.109 340.948 233.391 338.139 233.313Z" fill="#CE615A"/>
<path d="M338.139 236.371H337.205C337.165 236.368 337.126 236.357 337.09 236.339C337.055 236.321 337.023 236.296 336.997 236.266C336.971 236.236 336.951 236.2 336.939 236.162C336.926 236.124 336.922 236.084 336.925 236.044C336.925 236.005 336.933 235.967 336.948 235.931C336.964 235.896 336.986 235.864 337.015 235.837C337.043 235.811 337.077 235.791 337.114 235.778C337.151 235.766 337.19 235.761 337.228 235.764C340.268 235.858 343.307 235.592 346.284 234.97C346.321 234.956 346.36 234.949 346.399 234.951C346.439 234.953 346.477 234.963 346.513 234.98C346.548 234.998 346.579 235.023 346.604 235.053C346.629 235.084 346.647 235.119 346.658 235.157C346.673 235.192 346.68 235.23 346.68 235.268C346.68 235.306 346.672 235.344 346.657 235.379C346.641 235.414 346.619 235.446 346.591 235.472C346.563 235.498 346.53 235.518 346.494 235.531C343.756 236.167 340.948 236.449 338.139 236.371Z" fill="#CE615A"/>
<path d="M338.115 239.383H337.205C337.165 239.38 337.126 239.369 337.09 239.351C337.055 239.333 337.023 239.308 336.997 239.278C336.971 239.247 336.951 239.212 336.939 239.174C336.926 239.136 336.922 239.096 336.925 239.056C336.925 239.017 336.933 238.979 336.948 238.943C336.964 238.907 336.986 238.875 337.015 238.849C337.043 238.823 337.077 238.803 337.114 238.79C337.151 238.777 337.19 238.773 337.228 238.776C340.268 238.87 343.307 238.603 346.284 237.982C346.321 237.968 346.36 237.961 346.399 237.963C346.439 237.964 346.477 237.974 346.513 237.992C346.548 238.01 346.579 238.034 346.604 238.065C346.629 238.095 346.647 238.131 346.658 238.169C346.673 238.204 346.68 238.242 346.68 238.28C346.68 238.318 346.672 238.356 346.657 238.391C346.641 238.426 346.619 238.457 346.591 238.483C346.563 238.509 346.53 238.53 346.494 238.542C343.748 239.179 340.933 239.461 338.115 239.383Z" fill="#CE615A"/>
<path d="M338.139 242.417H337.205C337.127 242.406 337.055 242.367 337.003 242.307C336.952 242.247 336.924 242.17 336.925 242.091C336.925 242.052 336.933 242.013 336.948 241.978C336.964 241.942 336.986 241.91 337.015 241.884C337.044 241.857 337.077 241.837 337.114 241.825C337.151 241.812 337.19 241.807 337.228 241.81C340.268 241.904 343.307 241.638 346.284 241.017C346.321 241.002 346.36 240.996 346.399 240.997C346.439 240.999 346.477 241.009 346.513 241.027C346.548 241.044 346.579 241.069 346.604 241.1C346.629 241.13 346.647 241.166 346.658 241.204C346.673 241.239 346.68 241.276 346.68 241.315C346.68 241.353 346.672 241.391 346.657 241.426C346.641 241.461 346.619 241.492 346.591 241.518C346.563 241.544 346.53 241.564 346.494 241.577C343.756 242.213 340.948 242.496 338.139 242.417Z" fill="#CE615A"/>
<path d="M338.139 245.148H337.205C337.166 245.149 337.128 245.141 337.092 245.125C337.057 245.11 337.025 245.087 336.998 245.058C336.972 245.03 336.952 244.996 336.939 244.959C336.927 244.923 336.922 244.884 336.925 244.845C336.921 244.804 336.927 244.763 336.941 244.725C336.955 244.686 336.977 244.651 337.006 244.622C337.035 244.594 337.07 244.571 337.108 244.557C337.147 244.543 337.188 244.538 337.228 244.541C340.268 244.635 343.308 244.369 346.284 243.748C346.321 243.733 346.36 243.727 346.4 243.728C346.439 243.73 346.478 243.74 346.513 243.758C346.548 243.775 346.579 243.8 346.604 243.831C346.629 243.861 346.647 243.896 346.658 243.934C346.689 244.009 346.689 244.092 346.658 244.167C346.628 244.241 346.569 244.3 346.494 244.331C343.755 244.96 340.947 245.235 338.139 245.148Z" fill="#CE615A"/>
<path d="M338.139 247.926H337.205C337.166 247.927 337.128 247.919 337.092 247.903C337.056 247.888 337.025 247.865 336.998 247.836C336.972 247.808 336.952 247.774 336.939 247.737C336.926 247.701 336.922 247.662 336.925 247.623C336.925 247.543 336.957 247.465 337.014 247.408C337.071 247.352 337.148 247.32 337.228 247.32C340.268 247.413 343.307 247.147 346.284 246.526C346.359 246.503 346.439 246.51 346.508 246.545C346.578 246.579 346.631 246.64 346.658 246.713C346.689 246.787 346.689 246.87 346.658 246.945C346.628 247.019 346.568 247.078 346.494 247.109C343.755 247.738 340.947 248.013 338.139 247.926Z" fill="#CE615A"/>
<path d="M338.115 250.541H337.205C337.166 250.541 337.128 250.533 337.092 250.518C337.056 250.502 337.025 250.479 336.998 250.451C336.972 250.422 336.952 250.389 336.939 250.352C336.926 250.315 336.922 250.276 336.925 250.238C336.93 250.159 336.964 250.085 337.02 250.029C337.075 249.973 337.15 249.94 337.228 249.934C340.267 250.04 343.307 249.781 346.284 249.164C346.321 249.149 346.36 249.143 346.399 249.144C346.439 249.146 346.477 249.156 346.513 249.174C346.548 249.191 346.579 249.216 346.604 249.247C346.629 249.277 346.647 249.312 346.658 249.351C346.673 249.386 346.68 249.423 346.68 249.462C346.68 249.5 346.672 249.538 346.657 249.573C346.641 249.608 346.619 249.639 346.591 249.665C346.563 249.691 346.53 249.711 346.494 249.724C343.747 250.352 340.932 250.627 338.115 250.541Z" fill="#CE615A"/>
<path d="M338.139 254.113H337.205C337.166 254.113 337.128 254.105 337.092 254.089C337.056 254.074 337.025 254.051 336.998 254.023C336.972 253.994 336.952 253.96 336.939 253.924C336.926 253.887 336.922 253.848 336.925 253.809C336.925 253.729 336.957 253.652 337.014 253.595C337.071 253.538 337.148 253.506 337.228 253.506C340.268 253.6 343.307 253.333 346.284 252.712C346.321 252.698 346.36 252.691 346.399 252.693C346.439 252.694 346.477 252.704 346.513 252.722C346.548 252.74 346.579 252.764 346.604 252.795C346.629 252.825 346.647 252.861 346.658 252.899C346.689 252.973 346.689 253.057 346.658 253.131C346.628 253.206 346.568 253.265 346.494 253.296C343.755 253.924 340.947 254.199 338.139 254.113Z" fill="#CE615A"/>
<path d="M167.452 131.113L149.97 169.514L143.879 182.867L113.606 249.397L108.495 260.579L101.89 261.513L107.515 249.397L138.347 182.867L144.509 169.514L162.107 131.58L167.452 131.113Z" fill="#4D4263"/>
<path d="M101.913 261.512L79.9502 269.076L118.461 269.73L114.844 267.115L108.659 260.229L101.913 261.512Z" fill="#F79738"/>
<path d="M79.9502 269.076V273.115H118.461V269.73L79.9502 269.076Z" fill="#CA6428"/>
<path d="M149.971 169.514L143.879 182.866H138.348L144.509 169.514H149.971Z" fill="#263B7F"/>
<path d="M113.606 249.397L108.495 260.579L101.89 261.513L107.515 249.397H113.606Z" fill="#263B7F"/>
<path d="M185.751 75.4605C185.751 75.9274 185.541 76.3009 185.284 76.3009C185.027 76.3009 184.817 75.9274 184.817 75.4605C184.817 74.9936 185.027 74.6201 185.284 74.6201C185.541 74.6201 185.751 74.8769 185.751 75.4605Z" fill="#993E3A"/>
<path d="M184.654 90.1207C184.654 90.5875 184.421 90.961 184.164 90.961C183.907 90.961 183.697 90.5875 183.697 90.1207C183.697 89.6538 183.907 89.2803 184.164 89.2803C184.421 89.2803 184.654 89.6538 184.654 90.1207Z" fill="#993E3A"/>
<path d="M187.619 103.217C187.619 103.66 187.502 104.081 187.245 104.104C186.988 104.127 186.732 103.8 186.685 103.334C186.638 102.867 186.685 102.47 187.035 102.446C187.385 102.423 187.549 102.75 187.619 103.217Z" fill="#993E3A"/>
<path d="M191.049 115.542C191.049 115.986 191.049 116.406 190.699 116.429C190.349 116.453 190.162 116.126 190.116 115.659C190.069 115.192 190.116 114.795 190.466 114.772C190.816 114.749 190.979 115.145 191.049 115.542Z" fill="#993E3A"/>
<path d="M193.407 124.693C193.407 125.16 193.407 125.557 193.057 125.604C192.707 125.65 192.52 125.277 192.473 124.833C192.426 124.39 192.473 123.97 192.823 123.923C193.173 123.876 193.337 124.25 193.407 124.693Z" fill="#993E3A"/>
<path d="M334.591 267.933C335.21 266.435 336.248 265.149 337.581 264.228C338.914 263.307 340.485 262.791 342.104 262.743C343.723 262.694 345.322 263.114 346.708 263.954C348.093 264.793 349.207 266.015 349.915 267.472C350.622 268.93 350.894 270.561 350.696 272.169C350.498 273.777 349.84 275.293 348.8 276.536C347.76 277.779 346.384 278.694 344.836 279.172C343.288 279.65 341.635 279.671 340.076 279.231C337.852 278.457 336.027 276.834 334.999 274.716C333.97 272.598 333.824 270.158 334.591 267.933Z" fill="#5F1D16"/>
<path d="M342.13 277.107C341.655 277.105 341.183 277.035 340.729 276.896C339.98 276.673 339.287 276.29 338.699 275.774C338.111 275.259 337.641 274.622 337.321 273.908C336.523 272.248 336.381 270.347 336.925 268.586C337.255 267.16 338.039 265.88 339.158 264.937C340.278 263.995 341.672 263.44 343.133 263.357C343.606 263.362 344.076 263.424 344.534 263.544C345.283 263.767 345.975 264.15 346.564 264.666C347.152 265.181 347.622 265.818 347.941 266.532C348.729 268.195 348.87 270.092 348.338 271.854C348.005 273.281 347.221 274.562 346.103 275.508C344.985 276.454 343.591 277.015 342.13 277.107Z" fill="#9FD8D4"/>
<g style="mix-blend-mode:multiply" opacity="0.5">
<path d="M334.194 216.529C334.194 216.783 334.094 217.026 333.914 217.206C333.735 217.385 333.491 217.486 333.237 217.486H303.339C303.085 217.486 302.842 217.385 302.662 217.206C302.483 217.026 302.382 216.783 302.382 216.529C302.382 216.404 302.407 216.281 302.455 216.166C302.503 216.051 302.574 215.947 302.663 215.86C302.753 215.773 302.858 215.705 302.974 215.659C303.09 215.614 303.214 215.592 303.339 215.595H333.237C333.362 215.592 333.486 215.614 333.602 215.659C333.718 215.705 333.824 215.773 333.913 215.86C334.002 215.947 334.073 216.051 334.121 216.166C334.17 216.281 334.194 216.404 334.194 216.529Z" fill="#CE615A"/>
</g>
<path d="M334.194 216.879H330.436L329.363 210.062C329.363 210.062 314.425 207.915 306.606 210.739L306.326 216.879H302.288L302.755 210.226L302.965 206.958C302.965 206.958 323.294 204.413 333.307 206.958L333.517 209.292L334.194 216.879Z" fill="#9B3C36"/>
<path d="M334.194 216.879H330.436L329.363 210.062C329.363 210.062 314.425 207.915 306.606 210.739L306.326 216.879H302.288L302.755 210.226C307.742 208.502 313.003 207.711 318.276 207.891C323.384 208.037 328.472 208.583 333.494 209.525L334.194 216.879Z" fill="#872D2B"/>
<path d="M70.918 180.509L71.1747 181.909C71.1747 181.466 71.0112 181.022 70.9412 180.555L70.918 180.509Z" fill="#A89E9E"/>
<path d="M279.532 201.752C279.936 201.78 280.342 201.78 280.746 201.752H279.532Z" fill="#A89E9E"/>
<path d="M284.223 180.275C284.509 179.264 284.884 178.279 285.344 177.334C284.504 178.606 283.867 179.999 283.453 181.466H283.943C284.013 181.064 284.106 180.666 284.223 180.275Z" fill="#A89E9E"/>
<path d="M311.602 173.739C312.477 175.381 313.256 177.073 313.936 178.805C313.445 176.998 312.656 175.286 311.602 173.739Z" fill="#B9B0B0"/>
<path d="M297.527 227.034L306.887 228.108L302.989 266.905L297.527 264.454V227.034Z" fill="#FFC10D"/>
</svg>
