<svg width="390" height="302" viewBox="0 0 390 302" fill="none" xmlns="http://www.w3.org/2000/svg">
<path d="M141.007 289.077C188.969 289.077 258.484 331.776 336.607 261.944C414.729 192.113 387.732 164.568 374.923 67.4502C360.49 -41.9772 222.781 43.5254 120.643 31.7213C4.67855 18.3191 55.8008 116.074 14.2694 158.787C-27.262 201.501 33.8293 254.154 46.4227 261.944C56.4974 268.177 93.0452 289.077 141.007 289.077Z" fill="#EBEBEB" fill-opacity="0.25"/>
<g clip-path="url(#clip0_6_2060)">
<path d="M185.708 54.592C185.552 56.5933 180.996 62.0636 179.432 63.4868C178.693 61.1984 177.782 58.9684 176.707 56.8157C176.38 56.189 175.975 55.6062 175.501 55.0812C173.425 53.4608 170.916 52.4861 168.286 52.2793L167.125 52.1459C166.611 52.1182 166.097 52.1182 165.584 52.1459C165.13 52.1207 164.675 52.1207 164.221 52.1459C164.221 52.1459 161.34 51.9235 159.285 57.1715C157.675 62.2506 156.51 67.4586 155.8 72.7374C155.8 72.7374 142.399 59.6843 142.734 56.4599C143.069 53.2355 146.598 56.3265 146.799 56.4599C146.665 56.2153 144.186 52.0125 144.789 50.7894C145.392 49.5664 148.898 51.0563 148.898 51.0563C148.898 51.0563 145.503 44.3852 147.469 43.1399C149.435 41.8946 151.489 45.3636 151.489 45.3636C151.489 45.3636 151.221 35.2235 156.247 34.8455C156.878 34.7452 157.523 34.7732 158.143 34.9276C158.763 35.0821 159.345 35.3599 159.854 35.7443C160.363 36.1286 160.789 36.6116 161.106 37.1642C161.423 37.7167 161.624 38.3273 161.697 38.9593C161.697 38.9593 166.164 32.644 167.773 33.1554C169.381 33.6669 168.532 40.1824 168.487 40.4492C170.533 38.7518 172.689 37.1917 174.942 35.7794C175.584 35.3863 176.257 35.0443 176.953 34.7565C177.545 34.4578 178.221 34.3639 178.874 34.4897C180.839 35.268 178.36 39.2039 177.6 40.338C178.114 39.6931 179.387 38.3367 180.303 39.3151C181.219 40.2935 178.606 44.0294 179.298 43.7625C181.911 42.7619 183.073 43.2066 183.341 45.3414C183.609 47.4761 179.008 52.2348 179.008 52.2348C180.195 51.8301 181.479 51.8055 182.681 52.1645C183.883 52.5234 184.941 53.2478 185.708 54.2362C185.728 54.354 185.728 54.4741 185.708 54.592Z" fill="#6E1D14"/>
<path d="M176.908 34.9567C173.096 40.4365 169.806 46.2582 167.08 52.3461C166.567 52.3184 166.052 52.3184 165.539 52.3461C165.085 52.3209 164.63 52.3209 164.176 52.3461C164.176 52.3461 161.295 52.1237 159.24 57.3717C157.63 62.4508 156.465 67.6588 155.755 72.9376C155.755 72.9376 142.354 59.8844 142.689 56.6601C143.024 53.4357 146.553 56.5267 146.754 56.6601C146.62 56.4155 144.141 52.2127 144.744 50.9896C145.347 49.7666 148.854 51.2565 148.854 51.2565C148.854 51.2565 145.458 44.5854 147.424 43.3401C149.39 42.0948 151.445 45.5638 151.445 45.5638C151.445 45.5638 151.177 35.4237 156.202 35.0457C156.833 34.9454 157.478 34.9734 158.098 35.1278C158.718 35.2823 159.3 35.5601 159.809 35.9445C160.318 36.3288 160.744 36.8118 161.061 37.3644C161.378 37.9169 161.579 38.5275 161.652 39.1595C161.652 39.1595 166.119 32.8442 167.728 33.3556C169.336 33.8671 168.487 40.3826 168.442 40.6494C170.488 38.952 172.644 37.3919 174.898 35.9796C175.54 35.5865 176.212 35.2445 176.908 34.9567Z" fill="#5B1511"/>
<path d="M179.655 88.2143C179.655 88.9926 179.655 89.971 179.544 91.0829C179.413 97.0345 178.943 102.974 178.136 108.873L161.764 112.586C161.764 112.586 159.396 99.7776 157.654 92.3949C157.409 91.3052 157.163 90.3268 156.939 89.5263C159.548 88.605 162.231 87.9058 164.958 87.436C169.856 86.6253 174.872 86.891 179.655 88.2143Z" fill="#7CC2C7"/>
<path d="M182.291 89.0372C181.467 89.8335 180.544 90.5211 179.544 91.083C176.455 92.7631 173.011 93.6927 169.492 93.7959C165.488 94.087 161.465 93.5882 157.654 92.3283C156.38 91.8958 155.153 91.3371 153.991 90.6605C154.974 90.1935 155.957 89.8155 156.94 89.4597C159.548 88.5384 162.231 87.8391 164.958 87.3694C169.861 86.5804 174.877 86.8688 179.655 88.2144C180.616 88.4813 181.487 88.7481 182.291 89.0372Z" fill="#449FA1"/>
<path d="M175.612 83.3667C175.456 84.0783 175.232 85.1012 174.92 86.2575C173.847 90.4603 171.859 96.5533 169.492 96.4643C166.7 96.4643 165.605 91.0162 164.824 86.8357C164.667 85.8795 164.511 85.0122 164.354 84.2562C166.856 84.2562 169.76 84.2562 172.329 84.0338C173.447 83.9491 174.55 83.725 175.612 83.3667Z" fill="#F1B5AB"/>
<path d="M175.612 83.3667C175.456 84.0783 175.232 85.1012 174.92 86.2575C171.637 87.1824 168.191 87.3798 164.824 86.8357C164.667 85.8795 164.511 85.0122 164.354 84.2562C166.856 84.2562 169.76 84.2562 172.329 84.0338C173.447 83.9491 174.55 83.725 175.612 83.3667Z" fill="#F5948D"/>
<path d="M182.336 79.3418C181.688 81.2541 178.338 83.7892 174.742 85.0567C173.763 85.3713 172.751 85.5728 171.726 85.6571C169.336 85.6571 166.656 85.9684 164.333 85.8795H163.685C162.192 85.9058 160.721 85.5127 159.441 84.7454C157.208 83.0998 156.471 79.1639 155.756 72.8263C155.756 72.8263 156.515 62.2637 157.297 58.2833C157.489 56.8015 158.152 55.4196 159.188 54.3394C160.225 53.2592 161.582 52.5374 163.06 52.2793C163.556 52.1452 164.065 52.0632 164.579 52.0347C165.539 52.0347 165.539 52.2793 165.539 52.2793C166.008 52.2793 166.567 52.2793 167.17 52.2793C170.169 52.3869 173.063 53.4118 175.456 55.2146C177.166 57.7737 178.49 60.5681 179.388 63.509C181.04 69.4685 182.917 77.6073 182.336 79.3418Z" fill="#F1B5AB"/>
<path d="M185.708 54.5918C185.552 56.5931 180.973 62.0634 179.432 63.4866C178.693 61.1982 177.782 58.9682 176.707 56.8155C179.777 56.3898 182.794 55.6444 185.708 54.5918Z" fill="#5B1511"/>
<path d="M163.685 85.835C162.192 85.8613 160.721 85.4683 159.441 84.7009C157.208 83.0554 156.471 79.1194 155.756 72.7819C155.756 72.7819 156.515 62.2193 157.297 58.2388C157.489 56.7571 158.152 55.3752 159.188 54.295C160.225 53.2148 161.582 52.4929 163.06 52.2348C163.556 52.1008 164.065 52.0188 164.579 51.9902L165.606 52.2348C166.075 52.2348 166.634 52.2348 167.237 52.2348C163.749 58.6188 161.113 65.4291 159.397 72.4928C159.445 77.2685 160.939 81.9187 163.685 85.835Z" fill="#F5948D"/>
<path d="M153.611 139.693C153.611 140.116 153.455 140.583 153.366 141.072C152.762 144.585 151.958 149.3 151.132 154.17C151.132 154.17 149.479 142.028 148.898 135.29C148.318 128.553 144.074 122.793 141.84 118.079C139.606 113.365 134.112 101.623 134.022 88.4369C134.191 79.7752 136.137 71.2392 139.741 63.3535C140.437 65.1543 141.546 66.7685 142.979 68.0678C146.123 70.6374 150.08 72.016 154.147 71.9592C150.462 77.2739 149.993 92.8176 149.993 92.8176C150.801 92.2932 151.636 91.8107 152.494 91.3722C154.673 96.9398 155.947 102.817 156.269 108.784C156.355 119.147 155.466 129.495 153.611 139.693Z" fill="#7CC2C7"/>
<path d="M224.148 72.0259C222.366 76.6694 220.002 81.0701 217.112 85.1235C213.36 89.7488 206.726 97.2205 202.438 101.69C199.02 105.226 194.977 110.162 194.285 113.231C193.749 115.699 190.733 125.906 189.55 129.842C189.55 129.842 185.596 114.276 183.921 110.34L185.931 90.5049C186.405 90.7453 186.898 90.9462 187.405 91.1053C189.274 89.7684 191.03 88.2809 192.654 86.6579C196.831 82.8776 202.303 77.7631 204.18 76.3621C207.262 73.9383 214.097 68.4902 214.097 68.4902C214.629 69.4165 215.4 70.1843 216.331 70.7139C218.744 71.9262 221.469 72.3835 224.148 72.0259Z" fill="#7CC2C7"/>
<path d="M223.367 165.644C222.563 168.09 221.133 172.582 219.57 177.919C214.901 193.485 208.402 216.3 208.402 216.3L205.409 217.745L205.141 217.879C202.332 211.149 200.715 203.987 200.361 196.709C200.236 188.895 201.046 181.094 202.773 173.471L203.197 171.559L201.12 172.159C191.538 174.917 175.098 179.898 175.098 179.898C175.098 179.898 170.274 195.908 166.164 210.385C164.399 216.745 162.791 222.837 161.853 227.107C161.027 230.798 159.731 237.025 158.257 244.207C158.257 244.652 158.078 245.097 157.967 245.541C153.857 265.555 148.585 292.017 148.585 292.017C148.094 292.884 146.352 292.951 145.436 292.929H144.967C144.967 292.929 136.032 260.463 137.618 250.078C138.202 246.235 139.322 242.493 140.946 238.959C141.893 236.809 143.069 234.767 144.453 232.866C144.677 230.265 144.967 225.839 145.302 220.525C146.352 203.736 147.848 177.919 148.63 171.336C149.166 167 150.082 160.996 150.998 155.103C151.01 154.911 151.01 154.718 150.998 154.525V154.169C151.132 153.347 151.243 152.524 151.377 151.701C151.388 151.509 151.388 151.316 151.377 151.123C152.092 146.853 152.762 142.895 153.276 140.004C153.276 140.004 153.276 139.804 153.276 139.715C155.114 129.523 155.989 119.183 155.889 108.828C155.567 102.862 154.293 96.9841 152.114 91.4165C152.621 91.1497 153.134 90.9051 153.656 90.6827C154.638 90.2157 155.621 89.8377 156.604 89.4819C156.827 90.2824 157.073 91.2609 157.319 92.3505C159.061 99.7332 161.429 112.542 161.429 112.542L177.801 108.828C178.607 102.929 179.077 96.9901 179.208 91.0385C179.208 89.9266 179.208 88.9482 179.32 88.1699C180.28 88.4368 181.151 88.7036 181.956 88.9927C183.497 89.5264 184.725 90.0601 185.596 90.4603L183.586 110.296C185.261 114.143 189.215 129.798 189.215 129.798C188.299 132.933 186.646 145.008 185.909 150.612C185.909 150.856 185.909 151.101 185.909 151.323C185.909 151.545 185.909 151.879 185.797 152.124C185.686 152.368 185.797 152.613 185.797 152.813C185.797 153.013 185.797 153.525 185.797 153.525C193.735 150.693 201.935 148.652 210.278 147.432C219.48 145.942 227.097 145.519 227.99 146.409C229.688 148.077 226.605 156.015 223.367 165.644Z" fill="#EE7123"/>
<path d="M233.039 32.0658C232.659 32.3326 232.659 45.8083 231.23 54.0138C229.757 60.3272 227.372 66.3945 224.149 72.0258C222.869 72.3745 221.53 72.4578 220.216 72.2703C218.902 72.0829 217.641 71.6288 216.51 70.9361C215.534 70.3181 214.709 69.4898 214.098 68.5123C214.883 63.203 215.957 57.9399 217.314 52.7462C219.46 44.9745 222.582 37.5032 226.606 30.5092C225.597 26.6515 225.242 22.6531 225.556 18.6791H225.668C227.053 17.2782 228.661 23.9048 228.661 23.9048C228.661 23.9048 231.877 14.543 233.418 15.5659C234.96 16.5888 231.743 21.2141 231.498 21.6144C231.721 21.3475 235.161 16.7667 235.965 17.167C236.769 17.5672 233.575 22.6373 232.525 24.1049C233.619 22.7929 237.171 18.7013 237.886 18.7013C238.6 18.7013 234.535 26.1063 234.29 26.5288C234.58 26.2174 238.958 21.3475 239.561 22.9486C240.164 24.5497 233.418 31.8212 233.039 32.0658Z" fill="#F1B5AB"/>
<path d="M160.67 59.1726C162.903 58.7946 166.834 58.6389 166.12 57.9273C165.532 57.3792 164.811 56.9926 164.028 56.8054C163.245 56.6183 162.426 56.6371 161.652 56.86C160.847 57.0378 160.088 57.3834 159.426 57.874C158.763 58.3645 158.213 58.989 157.811 59.7063C157.811 59.7063 158.905 59.4617 160.67 59.1726Z" fill="#6E1D14"/>
<path d="M171.301 57.5496C170.43 57.394 169.804 55.4816 173.177 55.5483C174.074 55.5152 174.964 55.7252 175.751 56.156C176.537 56.5868 177.192 57.2222 177.644 57.9944C177.644 57.9944 172.552 57.772 171.301 57.5496Z" fill="#6E1D14"/>
<path d="M145.012 292.929C143.525 294.788 142.195 296.766 141.036 298.844H151.869C151.869 298.844 149.099 293.729 148.429 292.306L145.012 292.929Z" fill="#272B6A"/>
<path d="M205.073 217.878L206.235 220.947H220.284C220.284 220.947 216.286 210.296 205.073 217.878Z" fill="#272B6A"/>
<path d="M166.209 210.385C164.444 216.745 162.836 222.838 161.898 227.107C161.027 231.021 159.664 237.803 158.012 245.564C154.773 248.099 150.149 251.523 149.077 251.523C148.005 251.523 143.27 243.296 141.036 239.026C141.983 236.876 143.159 234.834 144.543 232.933C144.766 230.331 145.057 225.906 145.392 220.592C149.804 218.942 154.089 216.972 158.213 214.699C161.675 212.742 164.333 211.341 166.209 210.385Z" fill="#2B91BE"/>
<path d="M223.367 165.644C222.562 168.09 221.133 172.582 219.569 177.918C214.343 175.225 208.586 173.707 202.706 173.471L203.13 171.559L201.053 172.159C203.549 163.714 206.632 155.452 210.278 147.431C219.48 145.942 227.097 145.519 227.99 146.409C229.688 148.076 226.605 156.015 223.367 165.644Z" fill="#2B91BE"/>
<path d="M157.14 152.524L157.721 152.635V153.213H157.14C155.263 152.908 153.417 152.439 151.623 151.813C151.634 151.62 151.634 151.427 151.623 151.234C153.421 151.823 155.267 152.255 157.14 152.524Z" fill="#6E2B28"/>
<path d="M177.622 152.902V153.502H177.042C174.715 153.79 172.373 153.946 170.028 153.969H168.777C165.934 153.982 163.092 153.826 160.267 153.502H159.687V152.924H160.267C163.478 153.284 166.708 153.44 169.939 153.391C172.291 153.357 174.639 153.201 176.975 152.924L177.622 152.902Z" fill="#6E2B28"/>
<path d="M186.244 150.678C186.244 150.923 186.244 151.167 186.244 151.39C184.077 152.219 181.833 152.829 179.544 153.213H178.963V152.613H179.544C181.843 152.219 184.09 151.57 186.244 150.678Z" fill="#6E2B28"/>
<path d="M157.453 156.304V156.882H156.894C154.931 156.442 152.993 155.901 151.087 155.259C151.1 155.066 151.1 154.873 151.087 154.681C152.97 155.352 154.895 155.902 156.85 156.326L157.453 156.304Z" fill="#6E2B28"/>
<path d="M176.773 156.593L177.354 156.416V157.038L176.773 157.194C174.314 157.825 171.786 158.154 169.246 158.172H168.844C165.765 158.159 162.693 157.876 159.664 157.327L159.083 157.216V156.66L159.664 156.771C162.794 157.346 165.973 157.622 169.157 157.594C171.728 157.586 174.288 157.25 176.773 156.593Z" fill="#6E2B28"/>
<path d="M186.043 152.302V152.991C184.059 154.476 181.86 155.653 179.521 156.482L178.94 156.66V156.082L179.521 155.86C181.804 155.028 183.932 153.826 185.82 152.302C185.855 152.286 185.893 152.277 185.932 152.277C185.97 152.277 186.008 152.286 186.043 152.302Z" fill="#6E2B28"/>
<path d="M160.402 151.635C160.367 151.619 160.329 151.61 160.29 151.61C160.252 151.61 160.213 151.619 160.178 151.635H157.476C157.404 151.639 157.336 151.668 157.283 151.717C157.23 151.765 157.196 151.831 157.185 151.901V152.613V153.191L156.984 156.26V156.816L156.672 159.507C156.664 159.571 156.681 159.636 156.718 159.689C156.755 159.742 156.81 159.78 156.873 159.796L158.883 160.285H159.039C159.077 160.266 159.109 160.237 159.133 160.202C159.156 160.167 159.17 160.127 159.173 160.085L159.598 157.372V156.816L160.089 153.614V153.036L160.245 151.924C160.303 151.903 160.351 151.863 160.38 151.809C160.408 151.756 160.416 151.694 160.402 151.635ZM159.642 153.503L159.151 156.749V157.305L158.794 159.729L157.319 159.373L157.498 156.972V156.393L157.721 153.302V152.724V152.213H159.821L159.709 153.013L159.642 153.503Z" fill="#6E2B28"/>
<path d="M176.997 153.569L176.774 156.593L177.354 156.415L177.555 153.502L176.997 153.569ZM179.231 151.545H177.488C177.451 151.542 177.414 151.547 177.379 151.559C177.344 151.571 177.312 151.59 177.284 151.615C177.257 151.64 177.235 151.671 177.22 151.705C177.205 151.739 177.198 151.775 177.198 151.812V152.991V153.569L176.774 156.593V157.194L176.64 159.017C176.643 159.11 176.683 159.198 176.751 159.262C176.809 159.284 176.873 159.284 176.93 159.262L179.164 158.772C179.233 158.762 179.296 158.727 179.341 158.673C179.386 158.62 179.41 158.553 179.409 158.483V151.812C179.404 151.743 179.374 151.678 179.325 151.629C179.276 151.58 179.211 151.55 179.141 151.545H179.231ZM178.94 158.216L177.31 158.572L177.421 156.927V156.304L177.622 153.391V152.791V152.012H178.806L178.94 158.216Z" fill="#6E2B28"/>
<path d="M166.588 72.982C166.588 72.982 166.432 72.982 166.41 72.8486C166.387 72.7152 166.41 72.7152 166.566 72.6484H166.678L169.135 71.9813C170.333 71.5763 171.609 71.4471 172.865 71.6033C171.301 67.5117 168.822 60.6849 169.157 59.0616C169.173 59.0119 169.207 58.9702 169.253 58.9453C169.299 58.9204 169.352 58.9143 169.403 58.9282C169.427 58.9333 169.449 58.9433 169.469 58.9575C169.489 58.9716 169.505 58.9897 169.518 59.0105C169.531 59.0313 169.539 59.0545 169.542 59.0786C169.545 59.1027 169.543 59.1272 169.537 59.1506C169.313 60.2624 170.721 64.9767 173.334 71.7367V71.9146C173.365 71.9477 173.383 71.9914 173.383 72.0369C173.383 72.0824 173.365 72.1262 173.334 72.1592C173.299 72.1863 173.256 72.2009 173.211 72.2009C173.167 72.2009 173.123 72.1863 173.088 72.1592C173.088 72.1592 172.463 71.5811 169.269 72.4038L166.789 73.0487H166.611L166.588 72.982Z" fill="#6E2B28"/>
<path d="M166.275 77.3181L174.361 76.2729C174.28 77.2994 173.844 78.2662 173.127 79.0083C172.41 79.7504 171.457 80.2219 170.43 80.3423C169.476 80.4893 168.503 80.2534 167.724 79.6863C166.945 79.1192 166.424 78.2674 166.275 77.3181Z" fill="white"/>
<path d="M165.293 63.5757C165.293 64.9322 164.802 66.044 164.176 66.044C163.551 66.044 163.06 64.9322 163.06 63.5757C163.06 62.2193 163.551 61.1074 164.176 61.1074C164.802 61.1074 165.293 62.2193 165.293 63.5757Z" fill="#1E1724"/>
<path d="M175.188 62.4859C175.188 63.7312 174.719 64.7096 174.16 64.7096C173.602 64.7096 173.11 63.6867 173.11 62.4859C173.11 61.2851 173.579 60.2622 174.16 60.2622C174.741 60.2622 175.188 61.1295 175.188 62.4859Z" fill="#1E1724"/>
<path d="M182 17.3228C182.01 17.3592 182.01 17.3975 182 17.4339C179.946 19.2954 177.7 20.9352 175.299 22.3261C175.299 22.3261 175.009 23.2823 174.495 24.8389C173.244 28.6192 170.765 35.9574 168.464 41.4277C165.248 49.1217 154.102 71.9592 154.102 71.9592C151.893 72.1968 149.659 71.9186 147.577 71.1466C145.495 70.3746 143.622 69.1301 142.108 67.5118C140.96 66.3606 140.143 64.9249 139.74 63.3534C143.076 56.1646 146.99 49.256 151.444 42.6952C157.765 33.8004 167.08 22.9487 167.08 22.9487C164.623 15.3881 166.231 6.73793 167.861 6.27095C167.945 6.24101 168.036 6.23557 168.123 6.25526C168.21 6.27496 168.29 6.31897 168.353 6.38213C168.91 7.32744 169.13 8.43213 168.978 9.51756C169.403 8.02768 170.162 6.31543 170.944 6.3599C172.239 6.3599 171.904 11.8302 171.86 12.6975C171.86 11.8969 172.753 7.44951 174.093 7.80531C175.433 8.1611 174.093 14.9879 174.227 16.9225C174.361 18.8571 177.176 17.1671 177.176 17.1671C181.241 14.4319 182 17.3228 182 17.3228Z" fill="#F1B5AB"/>
<path d="M169.09 72.8043C165.717 73.6255 162.663 75.4203 160.312 77.9633C160.312 77.9633 168.018 77.1627 171.837 76.629C176.148 76.0286 178.538 75.5617 178.538 75.5617C178.538 75.5617 176.617 71.7369 169.09 72.8043Z" fill="#6E1D14"/>
<path d="M168.688 24.3052C168.018 25.3726 157.296 37.2917 151.98 46.5423C148.3 53.3515 145.004 60.3596 142.108 67.5341C140.957 66.3767 140.139 64.9329 139.74 63.3535C143.076 56.1646 146.99 49.256 151.444 42.6953C157.765 33.8005 167.08 22.9488 167.08 22.9488C164.623 15.3882 166.231 6.73797 167.861 6.271C166.976 9.6755 166.794 13.2235 167.325 16.7002C168.598 20.8585 169.38 23.3268 168.688 24.3052Z" fill="#F5948D"/>
<path d="M181.911 17.4341C179.857 19.2955 177.611 20.9354 175.21 22.3262C175.21 22.3262 174.92 23.2824 174.406 24.839C174.63 22.7932 174.831 20.8141 174.875 20.6585C174.92 20.5028 179.387 18.8795 181.911 17.4341Z" fill="#F5948D"/>
<path d="M228.482 31.043C225.193 37.149 222.709 43.6513 221.088 50.3892C219.905 56.3488 217.917 65.7995 216.621 70.9363C215.645 70.3182 214.821 69.4899 214.209 68.5124C214.994 63.2031 216.068 57.94 217.425 52.7464C219.571 44.9746 222.693 37.5033 226.717 30.5093C225.708 26.6516 225.353 22.6533 225.667 18.6792H225.779C226.153 22.8974 227.061 27.0516 228.482 31.043Z" fill="#F5948D"/>
<path d="M153.366 141.183C152.762 144.697 151.958 149.411 151.132 154.281C151.132 154.281 149.479 142.139 148.898 135.402C148.318 128.664 144.074 122.904 141.84 118.19C139.606 113.476 134.112 101.735 134.022 88.5481C134.176 79.8488 136.122 71.2735 139.741 63.3535C140.437 65.1543 141.546 66.7685 142.979 68.0678C139.861 76.6205 138.281 85.6535 138.311 94.7522C138.691 101.69 146.039 116.989 149.256 125.684C151.044 130.731 152.418 135.915 153.366 141.183Z" fill="#449FA1"/>
<path d="M216.219 70.7359C212.802 74.7163 200.226 82.6105 192.654 86.6799C196.831 82.8996 202.304 77.7851 204.18 76.3841C207.262 73.9603 214.097 68.5122 214.097 68.5122C214.598 69.4244 215.33 70.1909 216.219 70.7359Z" fill="#449FA1"/>
<path d="M153.366 165.644C153.366 165.644 150.685 184.768 149.01 200.667C147.335 216.567 146.173 237.381 146.173 237.381C142.877 244.278 141.117 251.803 141.014 259.44C141.014 270.202 144.632 288.726 145.481 292.951H145.012C145.012 292.951 136.077 260.485 137.663 250.1C138.247 246.258 139.367 242.515 140.991 238.982C141.938 236.832 143.114 234.789 144.498 232.889C144.721 230.287 145.012 225.862 145.347 220.547C146.397 203.758 147.893 177.941 148.675 171.359C149.211 167.023 150.127 161.019 151.043 155.126C151.055 154.933 151.055 154.74 151.043 154.548V154.192C151.177 153.369 151.288 152.546 151.422 151.724C151.433 151.531 151.433 151.338 151.422 151.145C152.137 146.876 152.807 142.918 153.321 140.027C153.902 145.008 153.879 160.396 153.366 165.644Z" fill="#D15C27"/>
<path d="M205.342 217.745L205.074 217.879C202.266 211.15 200.649 203.987 200.294 196.709C200.17 188.895 200.979 181.095 202.706 173.471L203.131 171.559L201.053 172.159C191.471 174.917 175.032 179.898 175.032 179.898C175.032 179.898 170.207 195.909 166.097 210.385C164.333 216.745 162.725 222.838 161.787 227.107C160.96 230.798 159.665 237.025 158.19 244.207C158.827 234.812 160.028 225.463 161.787 216.211C166.254 196.064 172.218 177.919 172.218 177.919C181.755 176.073 208.447 164.754 208.447 164.754C208.447 164.754 206.37 176.429 204.449 190.594C203.409 199.639 203.71 208.787 205.342 217.745Z" fill="#D15C27"/>
<path d="M142.309 299.978C142.158 299.981 142.007 299.953 141.867 299.898C141.726 299.842 141.598 299.759 141.489 299.653C141.381 299.548 141.295 299.422 141.237 299.283C141.178 299.144 141.148 298.994 141.148 298.844C141.123 298.711 141.123 298.576 141.148 298.443C141.572 296.62 145.615 270.202 150.082 242.228C153.79 218.59 157.967 191.817 161.25 170.914C163.06 159.528 164.445 151.101 165.45 145.141C167.281 134.245 167.281 134.245 168.264 134.023C168.412 133.99 168.566 133.987 168.715 134.015C168.864 134.042 169.006 134.099 169.133 134.182C169.26 134.265 169.369 134.372 169.454 134.497C169.539 134.623 169.597 134.764 169.626 134.912C169.66 135.043 169.668 135.179 169.649 135.312C169.63 135.446 169.584 135.574 169.515 135.69C168.487 139.159 159.151 198.866 152.316 242.562C149.881 258.128 147.67 272.115 146.062 282.366C145.235 287.48 144.588 291.639 144.096 294.53C143.873 295.975 143.694 297.087 143.538 297.865C143.426 299.288 143.27 299.978 142.309 299.978ZM169.224 136.157C169.114 136.227 168.993 136.279 168.867 136.313C168.993 136.279 169.114 136.227 169.224 136.157Z" fill="#90584D"/>
<path d="M229.308 299.978C229.156 299.98 229.006 299.953 228.865 299.898C228.724 299.842 228.596 299.759 228.488 299.653C228.38 299.548 228.294 299.422 228.235 299.283C228.177 299.144 228.146 298.994 228.146 298.843V135.179C228.146 134.872 228.269 134.578 228.487 134.361C228.705 134.144 229 134.022 229.308 134.022C229.616 134.022 229.911 134.144 230.129 134.361C230.347 134.578 230.469 134.872 230.469 135.179V298.843C230.464 299.146 230.339 299.435 230.121 299.647C229.904 299.859 229.612 299.978 229.308 299.978Z" fill="#90584D"/>
<path d="M190.176 299.978C189.937 299.982 189.703 299.911 189.506 299.776C189.31 299.64 189.161 299.446 189.081 299.222C188.769 298.399 179.879 225.239 174.608 181.699C174.588 181.537 174.601 181.372 174.647 181.216C174.693 181.059 174.771 180.913 174.876 180.787C174.986 180.667 175.12 180.571 175.271 180.506C175.421 180.44 175.583 180.408 175.747 180.409H230.202C230.468 180.408 230.727 180.498 230.934 180.664C231.141 180.83 231.285 181.062 231.341 181.321L255.911 298.599C255.944 298.747 255.946 298.899 255.919 299.048C255.891 299.197 255.834 299.338 255.751 299.465C255.668 299.591 255.56 299.699 255.434 299.784C255.308 299.868 255.167 299.927 255.018 299.956C254.868 299.988 254.713 299.991 254.563 299.964C254.412 299.937 254.268 299.88 254.139 299.798C254.011 299.715 253.9 299.608 253.813 299.482C253.726 299.357 253.665 299.215 253.633 299.066L229.264 182.722H177.065C181.889 222.593 190.868 296.131 191.293 298.555C191.355 298.834 191.315 299.127 191.18 299.38C191.045 299.632 190.823 299.829 190.556 299.933C190.432 299.969 190.304 299.984 190.176 299.978Z" fill="#90584D"/>
<path d="M230.224 181.565H157.721V188.103H230.224V181.565Z" fill="#A1D0C0"/>
<path d="M228.482 223.905H151.847V228.908H228.482V223.905Z" fill="#A1D0C0"/>
<path d="M230.225 271.448H145.615V276.451H230.225V271.448Z" fill="#A1D0C0"/>
<path d="M230.716 132.155H167.058V136.647H230.716V132.155Z" fill="#A1D0C0"/>
<path d="M235.049 9.98457C235.049 12.742 228.013 15.1658 217.582 16.4333C211.867 17.1149 206.116 17.4417 200.361 17.4117C181.241 17.434 165.605 14.1207 165.605 9.98457C165.605 5.84848 181.241 2.53516 200.316 2.53516C204.962 2.53516 209.384 2.73529 213.427 3.09108C226.136 4.22517 235.049 6.89362 235.049 9.98457Z" fill="#97D8E9"/>
<path d="M208.692 9.80634C208.692 11.4074 204.672 12.6972 199.758 12.6972C194.844 12.6972 190.823 11.4074 190.823 9.80634C190.823 8.20527 194.844 6.91553 199.758 6.91553C204.672 6.91553 208.692 8.22751 208.692 9.80634Z" fill="#68B4D6"/>
<path d="M235.049 5.53702V9.98443C235.049 6.89348 226.114 4.22504 213.628 3.11319C209.541 2.73516 205.051 2.53502 200.361 2.53502C181.241 2.55726 165.605 5.89282 165.605 9.98443V5.00334C165.605 5.00334 174.54 0 201.031 0C205.096 0 208.692 0.133422 211.908 0.355792C229.71 1.55659 235.049 5.53702 235.049 5.53702Z" fill="#68B4D6"/>
<path d="M235.049 5.53697V9.98438C235.049 6.89343 226.114 4.22498 213.628 3.11313C213.048 2.11246 212.445 1.13403 211.953 0.333496C229.71 1.55653 235.049 5.53697 235.049 5.53697Z" fill="#3485BA"/>
<path d="M235.048 9.98431C235.048 12.7417 228.012 15.1655 217.582 16.433C216.8 11.8267 215.418 7.34151 213.472 3.09082C226.136 4.22491 235.048 6.89336 235.048 9.98431Z" fill="#BDE4E8"/>
</g>
<defs>
<clipPath id="clip0_6_2060">
<rect width="122" height="300" fill="white" transform="translate(134)"/>
</clipPath>
</defs>
</svg>
