<svg width="105" height="94" viewBox="0 0 105 94" fill="none" xmlns="http://www.w3.org/2000/svg">
<circle cx="40.5" cy="50.5" r="40.5" fill="#FFF4D0" fill-opacity="0.5"/>
<path d="M16.4023 88.652H52.4604L51.9394 86.6459C51.314 84.2372 49.1399 82.5554 46.6513 82.5554H24.2843C20.5751 82.5554 17.3346 85.0619 16.4023 88.652V88.652Z" fill="#909BA5"/>
<path d="M51.4886 85.4858H18.0296C17.2778 86.3871 16.7121 87.4592 16.4023 88.652H52.4604L51.9394 86.6459C51.8332 86.2359 51.6786 85.8491 51.4886 85.4858V85.4858Z" fill="#808B95"/>
<path d="M30.0801 82.5553H42.4257V78.4787C42.4257 77.5072 41.6382 76.7197 40.6668 76.7197H31.839C30.8676 76.7197 30.0801 77.5072 30.0801 78.4787V82.5553Z" fill="#DC4955"/>
<path d="M30.0801 79.3892H42.4257V82.5553H30.0801V79.3892Z" fill="#D82F3C"/>
<path d="M64.8432 6.3399C66.1818 3.3435 69.1669 1.40723 72.4488 1.40723C77.0418 1.40723 80.7784 5.1438 80.7784 9.73699V28.7852H75.5015V9.73699C75.5015 8.05383 74.1321 6.68413 72.4488 6.68413C71.2462 6.68413 70.1519 7.39369 69.6614 8.49182L39.1855 76.7198H33.4062L64.8432 6.3399Z" fill="#808B95"/>
<path d="M33.4062 76.7199H39.1855L40.5997 73.5537H34.8205L33.4062 76.7199Z" fill="#5E6B75"/>
<path d="M80.8131 36.5452C81.264 36.5452 81.7011 36.6032 82.1179 36.7118V28.7852H73.957V37.4866C76.1461 36.8731 78.447 36.5452 80.8131 36.5452Z" fill="#F6E080"/>
<path d="M75.501 25.6189H80.7779V28.785H75.501V25.6189Z" fill="#5E6B75"/>
<path d="M80.8131 33.3789C78.4468 33.3789 76.1461 33.7066 73.957 34.3203V37.4864C76.1461 36.8729 78.447 36.545 80.8131 36.545C81.264 36.545 81.7011 36.6031 82.1179 36.7116V33.5455C81.7012 33.4371 81.264 33.3789 80.8131 33.3789Z" fill="#ECCD61"/>
<path d="M85.9788 88.652H65.0318C57.2063 88.652 51.3055 81.5426 52.747 73.851L55.8568 57.2583C58.1076 45.2486 68.5935 36.5454 80.8123 36.5454C83.6656 36.5454 85.9786 38.8584 85.9786 41.7117V88.652H85.9788Z" fill="#DC4955"/>
<path d="M52.6313 74.5925C51.6888 81.9934 57.4591 88.6519 65.0323 88.6519H85.9792V85.4858H65.0323C58.5615 85.4858 53.4068 80.6244 52.6313 74.5925Z" fill="#D82F3C"/>
<path d="M73.9562 55.9619V37.4866C64.8416 40.0415 57.6719 47.5742 55.8568 57.2581L55.4404 59.4798H70.4383C72.3812 59.4798 73.9562 57.9048 73.9562 55.9619V55.9619Z" fill="#F6E080"/>
<path d="M70.4383 56.3138H56.0531C55.9822 56.6264 55.9164 56.9411 55.8568 57.2582L55.4404 59.48H70.4383C72.3812 59.48 73.9562 57.905 73.9562 55.962V52.7959C73.9562 54.7389 72.3812 56.3138 70.4383 56.3138V56.3138Z" fill="#ECCD61"/>
<path d="M95.0969 84.8665C100.141 79.8221 100.141 71.6437 95.0969 66.5994C90.0526 61.5551 81.8741 61.5551 76.8298 66.5994C71.7855 71.6437 71.7855 79.8221 76.8298 84.8665C81.8741 89.9108 90.0526 89.9108 95.0969 84.8665Z" fill="#909BA5"/>
<path d="M85.9794 85.4858C79.3809 85.4858 73.9418 80.5377 73.1606 74.1501C73.0971 74.6694 73.0605 75.1969 73.0605 75.7332C73.0605 82.8681 78.8446 88.6519 85.9793 88.6519C93.1142 88.6519 98.898 82.8679 98.898 75.7332C98.898 75.1969 98.8614 74.6694 98.7979 74.1501C98.0171 80.5377 92.5779 85.4858 85.9794 85.4858V85.4858Z" fill="#808B95"/>
<path d="M88.5153 79.6023C90.6293 78.1878 91.1964 75.3275 89.782 73.2135C88.3676 71.0995 85.5072 70.5323 83.3932 71.9468C81.2792 73.3612 80.712 76.2216 82.1265 78.3356C83.5409 80.4496 86.4013 81.0167 88.5153 79.6023Z" fill="#F6E080"/>
<path d="M85.9794 77.1733C83.9916 77.1733 82.2981 75.9142 81.6524 74.1501C81.4717 74.6437 81.373 75.177 81.373 75.7332C81.373 78.2772 83.4354 80.3394 85.9792 80.3394C88.5232 80.3394 90.5855 78.2772 90.5855 75.7332C90.5855 75.177 90.4868 74.6437 90.3061 74.1501C89.6608 75.9142 87.9671 77.1733 85.9794 77.1733V77.1733Z" fill="#ECCD61"/>
<path d="M87.3567 61.5909V54.0849C87.3567 53.3549 86.7648 52.763 86.0349 52.763C85.3049 52.763 84.713 53.3549 84.713 54.0849V61.5909C77.4645 62.2604 71.7689 68.373 71.7689 75.7933C71.7689 80.5839 74.145 84.8272 77.7776 87.4155H65.0469C61.7041 87.4155 58.5624 85.9403 56.4278 83.3681C54.2927 80.796 53.4215 77.4364 54.0373 74.1508L56.5338 60.8302H70.464C73.1364 60.8302 75.3106 58.6559 75.3106 55.9835V38.4971C77.0981 38.0746 78.9561 37.8507 80.8586 37.8507C82.9839 37.8507 84.7132 39.5799 84.7132 41.7053V48.7978C84.7132 49.5277 85.3051 50.1196 86.035 50.1196C86.765 50.1196 87.3569 49.5277 87.3569 48.7978V41.7051C87.3569 39.0575 85.7645 36.7763 83.4877 35.7645V28.7533C83.4877 28.0233 82.8958 27.4314 82.1658 27.4314H82.1458V9.66781C82.1456 4.33691 77.8087 0 72.478 0C68.6691 0 65.2043 2.24708 63.6506 5.72508L56.1363 22.548C55.8385 23.2145 56.1375 23.9962 56.804 24.294C57.4707 24.5921 58.2522 24.2927 58.55 23.6263L66.0643 6.80333C67.193 4.2764 69.7106 2.64373 72.4778 2.64373C76.351 2.64373 79.5021 5.79474 79.5021 9.66781V27.4316H76.8583V9.66781C76.8583 7.25239 74.8932 5.28728 72.4778 5.28728C70.7521 5.28728 69.1822 6.30537 68.4781 7.8814L38.2923 75.46H35.397L56.3931 28.4548C56.6909 27.7883 56.3919 27.0066 55.7252 26.7088C55.0584 26.4105 54.2771 26.7101 53.9793 27.3766L32.5018 75.46H31.789C30.0885 75.46 28.7049 76.8436 28.7049 78.5442V81.3068H24.2192C19.9012 81.3068 16.1277 84.2256 15.0425 88.4049C14.9396 88.8009 15.0261 89.2222 15.2762 89.5458C15.5265 89.8693 15.9126 90.0589 16.3217 90.0589H37.1089C37.8388 90.0589 38.4307 89.4672 38.4307 88.737C38.4307 88.0069 37.8388 87.4152 37.1089 87.4152H18.2707C19.4626 85.3129 21.7139 83.9502 24.2192 83.9502H46.6301C48.5212 83.9502 50.1741 85.2286 50.6494 87.0592L50.7419 87.4152H42.3963C41.6663 87.4152 41.0745 88.0071 41.0745 88.737C41.0745 89.467 41.6663 90.0589 42.3963 90.0589H52.4507C52.8599 90.0589 53.246 89.8695 53.4963 89.5458C53.7466 89.2222 53.8329 88.8009 53.73 88.4048L53.208 86.3948C52.4302 83.3989 49.7252 81.3066 46.63 81.3066H43.718V78.544C43.718 77.025 42.6132 75.762 41.1656 75.5089L70.8917 8.95947C71.1709 8.33451 71.7936 7.93083 72.4778 7.93083C73.4356 7.93083 74.2146 8.71005 74.2146 9.66781V27.4316H73.9886C73.2586 27.4316 72.6667 28.0233 72.6667 28.7535V36.4906C63.5241 39.4341 56.4017 47.1834 54.5546 57.0387L51.4388 73.6639C50.6777 77.7248 51.7547 81.8774 54.3933 85.0566C57.0323 88.2357 60.9152 90.0591 65.0469 90.0591H86.0349C93.9011 90.0591 100.301 83.6594 100.301 75.7932C100.301 68.3728 94.6053 62.2604 87.3567 61.5909V61.5909ZM31.3482 81.307V78.5444C31.3482 78.3014 31.546 78.1037 31.7889 78.1037H40.6338C40.8767 78.1037 41.0745 78.3014 41.0745 78.5444V81.307H31.3482ZM75.3106 30.0752H80.844V35.2071C78.9531 35.2082 77.1016 35.4087 75.3106 35.7879V30.0752ZM72.6669 39.284V55.9833C72.6669 57.1981 71.6787 58.1863 70.4638 58.1863H57.0292L57.153 57.5256C58.763 48.9369 64.8186 42.1232 72.6669 39.284V39.284ZM86.0349 87.4155C79.6262 87.4155 74.4127 82.2018 74.4127 75.7933C74.4127 69.3849 79.6264 64.1711 86.0349 64.1711C92.4433 64.1711 97.6571 69.3849 97.6571 75.7933C97.6571 82.2018 92.4433 87.4155 86.0349 87.4155Z" fill="black"/>
<path d="M86.0347 69.856C82.7609 69.856 80.0977 72.5194 80.0977 75.793C80.0977 79.0668 82.7611 81.73 86.0347 81.73C89.3083 81.73 91.9717 79.0666 91.9717 75.793C91.9717 72.5194 89.3083 69.856 86.0347 69.856ZM86.0347 79.0865C84.2187 79.0865 82.7412 77.609 82.7412 75.793C82.7412 73.977 84.2187 72.4995 86.0347 72.4995C87.8507 72.4995 89.3282 73.977 89.3282 75.793C89.3282 77.6091 87.8507 79.0865 86.0347 79.0865Z" fill="black"/>
</svg>
