<svg width="86" height="92" viewBox="0 0 86 92" fill="none" xmlns="http://www.w3.org/2000/svg">
<circle cx="40.5" cy="51.5" r="40.5" fill="#FFF4D0" fill-opacity="0.5"/>
<path d="M51.148 84.3574L82.362 30.6117C83.0688 29.3947 82.0665 27.8974 80.672 28.0869L59.9093 30.9091L64.8702 4.86451C65.0374 3.98648 63.9055 3.4834 63.3658 4.19584L32.6756 44.7068C31.7817 45.8868 32.7281 47.5645 34.2005 47.4095L57.0912 44.9999L49.5869 83.772C49.4059 84.7074 50.6695 85.1811 51.148 84.3574Z" fill="#FFDC64"/>
<path d="M42.273 41.8361C41.6998 41.8819 41.3191 41.2553 41.6239 40.7677L64.5699 4.05371C64.2286 3.78371 63.6912 3.7663 63.3657 4.19591L32.6756 44.7069C31.7817 45.8869 32.7281 47.5646 34.2005 47.4095L57.0912 44.9999L49.5869 83.7721C49.4858 84.2951 49.8386 84.663 50.2508 84.7512L63.1099 44.0606C63.7127 42.1533 62.192 40.2426 60.1979 40.4022L42.273 41.8361Z" fill="#FFC850"/>
<path d="M85.1943 26.8881C84.9143 26.4695 84.4184 26.2473 83.9213 26.315L61.5474 29.3562L64.4252 14.2471C64.5615 13.5319 64.0921 12.8416 63.3769 12.7054C62.6632 12.5693 61.9715 13.0386 61.8351 13.7537L58.6144 30.6626C58.535 31.0792 58.661 31.5086 58.9528 31.8164C59.2444 32.1242 59.667 32.2728 60.087 32.2156L81.6045 29.2908L51.4129 81.2766L56.7491 53.7055C56.8874 52.9908 56.4202 52.2991 55.7053 52.1608C54.9905 52.0219 54.2987 52.4897 54.1605 53.2046L47.3425 88.4311C47.2203 89.0627 47.5717 89.6902 48.1739 89.9159C48.3256 89.9728 48.4821 90.0001 48.6364 90.0001C49.0949 90.0001 49.535 89.76 49.7767 89.3437L85.2386 28.2834C85.4915 27.848 85.4745 27.3066 85.1943 26.8881Z" fill="black"/>
<path d="M55.251 47.5685C55.1127 48.2832 55.5799 48.9749 56.2948 49.1132C56.3794 49.1296 56.4635 49.1375 56.5467 49.1375C57.1656 49.1375 57.7177 48.6998 57.8396 48.0694L58.3852 45.2506C58.4646 44.8403 58.3449 44.4169 58.0625 44.1089C57.78 43.8011 57.3701 43.6463 56.9529 43.689L33.2069 46.1886L63.1968 6.60166L62.9082 8.11724C62.772 8.8325 63.2413 9.52279 63.9566 9.65902C64.6708 9.7956 65.3621 9.32591 65.4983 8.61066L66.8404 1.56519C66.955 0.963663 66.6404 0.362493 66.081 0.113763C65.521 -0.134967 64.8643 0.0343096 64.4946 0.522453L29.2674 47.0221C28.9501 47.4412 28.912 48.0083 29.17 48.4662C29.4283 48.9239 29.9324 49.1841 30.4562 49.1294L55.4581 46.4976L55.251 47.5685Z" fill="black"/>
</svg>
