<svg width="105" height="89" viewBox="0 0 105 89" fill="none" xmlns="http://www.w3.org/2000/svg">
<circle cx="40.5" cy="48.5" r="40.5" fill="#FFF4D0" fill-opacity="0.5"/>
<path d="M95.5691 50.4957H92.5087V39.7845C92.5087 36.1321 91.0578 32.6292 88.4751 30.0466C85.8925 27.4639 82.3896 26.013 78.7372 26.013C75.0847 26.013 71.5819 27.4639 68.9992 30.0466C66.4165 32.6292 64.9656 36.1321 64.9656 39.7845V48.9656H61.9053V39.7845C61.9053 35.3204 63.6786 31.0392 66.8352 27.8826C69.9918 24.726 74.2731 22.9526 78.7372 22.9526C83.2013 22.9526 87.4825 24.726 90.6391 27.8826C93.7957 31.0392 95.5691 35.3204 95.5691 39.7845V50.4957Z" fill="#428DC5"/>
<path d="M55.7842 47.4353H98.629V53.556H55.7842V47.4353Z" fill="#6CBAE5"/>
<path d="M94.0386 82.6294H60.3748L57.3145 53.5562H97.0989L94.0386 82.6294Z" fill="#4799CF"/>
<path d="M98.6292 47.0527V58.0604C98.6292 59.7072 97.363 61.1265 95.7162 61.203C95.3025 61.2226 94.889 61.1582 94.501 61.0135C94.1129 60.8688 93.7582 60.6468 93.4583 60.3611C93.1585 60.0754 92.9197 59.7318 92.7564 59.3511C92.5932 58.9705 92.5089 58.5606 92.5086 58.1465C92.5086 58.9581 92.1861 59.7365 91.6122 60.3104C91.0383 60.8844 90.2599 61.2068 89.4482 61.2068C88.6366 61.2068 87.8581 60.8844 87.2842 60.3104C86.7103 59.7365 86.3879 58.9581 86.3879 58.1465C86.3879 58.9581 86.0654 59.7365 85.4915 60.3104C84.9176 60.8844 84.1392 61.2068 83.3275 61.2068C82.5159 61.2068 81.7375 60.8844 81.1635 60.3104C80.5896 59.7365 80.2672 58.9581 80.2672 58.1465C80.2679 58.6837 80.1267 59.2115 79.8579 59.6766C79.5881 60.1414 79.2018 60.5278 78.737 60.7975C78.2865 61.0595 77.7758 61.2006 77.2546 61.2068C75.5447 61.2317 74.1465 59.7723 74.1465 58.0623V47.0527C74.1465 45.9367 74.5898 44.8664 75.379 44.0772C76.1681 43.2881 77.2384 42.8447 78.3545 42.8447H94.4213C95.5373 42.8447 96.6076 43.2881 97.3968 44.0772C98.1859 44.8664 98.6292 45.9367 98.6292 47.0527Z" fill="#FD9226"/>
<path d="M60.375 82.6292H94.0388V88.7498H60.375V82.6292Z" fill="#6CBAE5"/>
<path d="M86.3877 70.3879H89.448V78.0388H86.3877V70.3879Z" fill="#6CBAE5"/>
<path d="M86.3877 64.2671H89.448V67.3274H86.3877V64.2671Z" fill="#6CBAE5"/>
<path d="M80.2675 58.1466C80.2682 58.6838 80.127 59.2116 79.8582 59.6767C79.5885 60.1415 79.2021 60.5279 78.7373 60.7976V52.0259H80.2675V58.1466Z" fill="#E08122"/>
<path d="M86.3876 58.1466C86.3878 58.6839 86.2465 59.2118 85.9779 59.6772C85.7093 60.1426 85.3228 60.529 84.8574 60.7976V52.0259H86.3876V58.1466Z" fill="#E08122"/>
<path d="M92.5087 58.1466C92.5089 58.6839 92.3676 59.2118 92.099 59.6772C91.8304 60.1426 91.4439 60.529 90.9785 60.7976V52.0259H92.5087V58.1466Z" fill="#E08122"/>
<path d="M71.0866 88.7499H22.1211L25.1814 76.5085H68.0263L71.0866 88.7499Z" fill="#FBB540"/>
<path d="M26.7108 70.3879H66.4953C66.9011 70.3879 67.2904 70.5492 67.5773 70.8361C67.8643 71.1231 68.0255 71.5123 68.0255 71.9181V76.5086H25.1807V71.9181C25.1807 71.5123 25.3419 71.1231 25.6288 70.8361C25.9158 70.5492 26.305 70.3879 26.7108 70.3879V70.3879Z" fill="#C17450"/>
<path d="M43.5429 76.5085H49.6636L51.1937 88.7499H42.0127L43.5429 76.5085Z" fill="#EA9D2D"/>
<path d="M28.2412 88.7499L31.3016 76.5085H37.4222L34.3619 88.7499H28.2412Z" fill="#EA9D2D"/>
<path d="M46.6033 0C47.415 0 48.1934 0.322428 48.7673 0.896354C49.3412 1.47028 49.6637 2.24869 49.6637 3.06034V70.3879H43.543V3.06034C43.543 2.24869 43.8654 1.47028 44.4393 0.896354C45.0132 0.322428 45.7917 0 46.6033 0V0Z" fill="#8F563B"/>
<path d="M31.3014 35.1938C30.8262 36.6191 30.0258 37.9142 28.9634 38.9766C27.901 40.0389 26.6059 40.8394 25.1807 41.3145C26.6059 41.7897 27.901 42.5901 28.9634 43.6525C30.0258 44.7148 30.8262 46.0099 31.3014 47.4352C31.7765 46.0099 32.5769 44.7148 33.6393 43.6525C34.7017 42.5901 35.9968 41.7897 37.422 41.3145C35.9968 40.8394 34.7017 40.0389 33.6393 38.9766C32.5769 37.9142 31.7765 36.6191 31.3014 35.1938V35.1938Z" fill="#FBB540"/>
<path d="M98.6295 16.832C98.1543 18.2573 97.3539 19.5524 96.2915 20.6148C95.2292 21.6771 93.9341 22.4776 92.5088 22.9527C93.9341 23.4279 95.2292 24.2283 96.2915 25.2907C97.3539 26.353 98.1543 27.6481 98.6295 29.0734C99.1046 27.6481 99.9051 26.353 100.967 25.2907C102.03 24.2283 103.325 23.4279 104.75 22.9527C103.325 22.4776 102.03 21.6771 100.967 20.6148C99.9051 19.5524 99.1046 18.2573 98.6295 16.832V16.832Z" fill="#FBB540"/>
<path d="M22.1207 53.5562C21.6455 54.9814 20.8451 56.2765 19.7827 57.3389C18.7204 58.4012 17.4253 59.2017 16 59.6768C17.4253 60.152 18.7204 60.9524 19.7827 62.0148C20.8451 63.0772 21.6455 64.3722 22.1207 65.7975C22.5958 64.3722 23.3963 63.0772 24.4586 62.0148C25.521 60.9524 26.8161 60.152 28.2414 59.6768C26.8161 59.2017 25.521 58.4012 24.4586 57.3389C23.3963 56.2765 22.5958 54.9814 22.1207 53.5562V53.5562Z" fill="#FBB540"/>
<path d="M55.7842 76.5085H61.9049L64.9652 88.7499H58.8445L55.7842 76.5085Z" fill="#EA9D2D"/>
</svg>
