<svg width="48" height="48" viewBox="0 0 48 48" fill="none" xmlns="http://www.w3.org/2000/svg">
<circle cx="24" cy="24" r="24" fill="white"/>
<path fill-rule="evenodd" clip-rule="evenodd" d="M24.398 31.804C25.881 31.0348 31 28.0163 31 23C31 19.134 27.866 16 24 16C20.134 16 17 19.134 17 23C17 28.0163 22.119 31.0348 23.602 31.804C23.8548 31.9351 24.1452 31.9351 24.398 31.804ZM24 26C25.6569 26 27 24.6569 27 23C27 21.3431 25.6569 20 24 20C22.3431 20 21 21.3431 21 23C21 24.6569 22.3431 26 24 26Z" fill="#F5DF99"/>
<path d="M24.398 31.804L24.6743 32.3366L24.6743 32.3366L24.398 31.804ZM23.602 31.804L23.3257 32.3366L23.3257 32.3366L23.602 31.804ZM30.4 23C30.4 25.2907 29.2328 27.1563 27.829 28.5722C26.4258 29.9876 24.8363 30.9007 24.1218 31.2713L24.6743 32.3366C25.4427 31.938 27.1542 30.9573 28.6812 29.4171C30.2077 27.8774 31.6 25.7256 31.6 23H30.4ZM24 16.6C27.5346 16.6 30.4 19.4654 30.4 23H31.6C31.6 18.8026 28.1974 15.4 24 15.4V16.6ZM17.6 23C17.6 19.4654 20.4654 16.6 24 16.6V15.4C19.8026 15.4 16.4 18.8026 16.4 23H17.6ZM23.8782 31.2714C23.1637 30.9007 21.5742 29.9876 20.171 28.5722C18.7672 27.1563 17.6 25.2907 17.6 23H16.4C16.4 25.7256 17.7923 27.8774 19.3188 29.4171C20.8458 30.9573 22.5573 31.938 23.3257 32.3366L23.8782 31.2714ZM24.1218 31.2713C24.0421 31.3127 23.9579 31.3127 23.8782 31.2713L23.3257 32.3366C23.7518 32.5576 24.2482 32.5576 24.6743 32.3366L24.1218 31.2713ZM26.4 23C26.4 24.3255 25.3255 25.4 24 25.4V26.6C25.9882 26.6 27.6 24.9882 27.6 23H26.4ZM24 20.6C25.3255 20.6 26.4 21.6745 26.4 23H27.6C27.6 21.0118 25.9882 19.4 24 19.4V20.6ZM21.6 23C21.6 21.6745 22.6745 20.6 24 20.6V19.4C22.0118 19.4 20.4 21.0118 20.4 23H21.6ZM24 25.4C22.6745 25.4 21.6 24.3255 21.6 23H20.4C20.4 24.9882 22.0118 26.6 24 26.6V25.4Z" fill="#F5DF99"/>
</svg>
