<svg width="79" height="100" viewBox="0 0 79 100" fill="none" xmlns="http://www.w3.org/2000/svg">
<path d="M39.4996 7.49213L66.0708 28.516H12.9293L39.4996 7.49213ZM77.3415 29.2122L41.5009 0.851875C40.3287 -0.0754089 38.6719 -0.0754089 37.4996 0.851875L1.65774 29.2122C0.5816 30.0636 0.162866 31.5032 0.613224 32.7995C1.064 34.0966 2.28646 34.9644 3.6582 34.9644H10.1327V50.6527L16.5811 55.22V34.9644H62.4186V46.4776L68.8669 41.9416V34.9644H75.3406C76.7128 34.9644 77.9352 34.0966 78.3869 32.7995C78.8372 31.5032 78.4176 30.0636 77.3415 29.2122Z" fill="white"/>
<path d="M33.2195 72.2732L10.1323 55.9216V63.8796L31.3611 78.8532C31.919 79.2462 32.5688 79.4431 33.2195 79.4431C33.8702 79.4431 34.5212 79.2462 35.0783 78.8536L68.8665 55.0213V47.1974L33.2195 72.2732Z" fill="white"/>
<path d="M4.47896 87.3718C4.47896 87.1677 4.41402 87.037 4.28456 86.9813C4.15469 86.9252 4.00119 86.8885 3.82324 86.87V86.5352H8.36478V86.87C8.1864 86.8885 8.03713 86.9252 7.91526 86.9813C7.79382 87.037 7.73351 87.1677 7.73351 87.3718V95.964H14.3881C14.4851 95.964 14.5825 95.9219 14.6795 95.8384C14.7765 95.7549 14.825 95.5643 14.825 95.2666H15.1168V99.4231H14.825C14.825 99.1254 14.7765 98.9487 14.6795 98.893C14.5825 98.837 14.4851 98.8095 14.3881 98.8095H3.82324V98.4747C4.00119 98.4562 4.15469 98.4186 4.28456 98.363C4.41402 98.3073 4.47896 98.1774 4.47896 97.9725V87.3718Z" fill="white"/>
<path d="M23.6658 89.4362L21.6742 94.318H25.706L23.6658 89.4362ZM26.9204 98.475C26.9689 98.475 27.033 98.4657 27.1148 98.4467C27.1953 98.4286 27.2358 98.354 27.2358 98.2237C27.2358 98.1495 27.2071 98.0335 27.1511 97.8749C27.0941 97.7172 27.0296 97.5448 26.9567 97.3588C26.8837 97.1733 26.8065 96.9869 26.726 96.8009C26.6446 96.615 26.5801 96.4568 26.5316 96.3269H20.8971C20.8642 96.4568 20.8119 96.615 20.7394 96.8009C20.6664 96.9869 20.5892 97.1733 20.5087 97.3588C20.4273 97.5448 20.3544 97.7172 20.2898 97.8749C20.2249 98.0335 20.1929 98.1495 20.1929 98.2237C20.1929 98.354 20.2329 98.4286 20.3143 98.4467C20.3948 98.4657 20.4598 98.475 20.5087 98.475V98.8098H16.8654V98.475C16.9628 98.475 17.0598 98.4518 17.1567 98.405C17.2541 98.3586 17.3182 98.289 17.3511 98.1954C17.8369 96.8945 18.3307 95.6063 18.8325 94.332C19.3347 93.0585 19.7838 91.9047 20.1806 90.8729C20.5774 89.8406 20.9051 88.9854 21.164 88.3061C21.4233 87.6276 21.5528 87.2422 21.5528 87.1486C21.5528 86.9816 21.4474 86.8884 21.237 86.8698V86.535H26.3128V86.8698C26.1023 86.8884 25.9973 86.9816 25.9973 87.1486C25.9973 87.2042 26.0821 87.4513 26.2525 87.8878C26.4224 88.3251 26.6446 88.8741 26.9204 89.5336C27.1953 90.1944 27.499 90.9243 27.8308 91.7238C28.1627 92.5234 28.4945 93.3237 28.8264 94.1228C29.1583 94.9227 29.4703 95.6809 29.7617 96.3965C30.0531 97.1125 30.2875 97.7126 30.4659 98.1954C30.4984 98.289 30.5629 98.3586 30.6603 98.405C30.7573 98.4518 30.8547 98.475 30.9517 98.475V98.8098H26.9204V98.475Z" fill="white"/>
<path d="M40.5448 96.4661C41.1115 96.4661 41.5893 96.3544 41.9776 96.1313C42.366 95.9082 42.5604 95.5177 42.5604 94.9598C42.5604 94.5879 42.5001 94.2999 42.3787 94.095C42.2572 93.8909 42.0995 93.742 41.9051 93.6484C41.7107 93.5561 41.4957 93.5 41.2612 93.4814C41.0268 93.4629 40.7877 93.4532 40.5448 93.4532H37.8979V96.4661H40.5448ZM40.7877 91.556C41.4189 91.556 41.844 91.4266 42.0628 91.166C42.2813 90.9054 42.3905 90.5895 42.3905 90.2176C42.3905 89.6593 42.2572 89.2966 41.9899 89.1296C41.723 88.9618 41.3219 88.8783 40.7877 88.8783H37.8979V91.556H40.7877ZM34.6433 87.3721C34.6433 87.1676 34.5742 87.0373 34.4367 86.9816C34.2988 86.9255 34.1086 86.8884 33.8657 86.8698V86.535H41.1765C41.9051 86.535 42.5279 86.5768 43.0466 86.6603C43.5644 86.7442 43.9853 86.8977 44.3096 87.1207C44.633 87.3438 44.8717 87.6554 45.0256 88.0556C45.1795 88.4554 45.2567 88.9618 45.2567 89.5758C45.2567 90.1712 45.0985 90.7055 44.7831 91.1799C44.4673 91.6543 44.0907 92.0123 43.6534 92.2539C44.3096 92.4959 44.805 92.8443 45.1411 93.2997C45.4768 93.7559 45.645 94.4015 45.645 95.239C45.645 96.3362 45.3043 97.2057 44.6229 97.8471C43.9414 98.4889 42.8299 98.8098 41.2882 98.8098H33.8657V98.475C34.1086 98.4564 34.2988 98.4189 34.4367 98.3633C34.5742 98.3072 34.6433 98.1777 34.6433 97.9724V87.3721Z" fill="white"/>
<path d="M54.3396 89.3246C53.8863 89.3246 53.457 89.4043 53.0522 89.5629C52.6474 89.7214 52.2915 89.9458 51.9837 90.2351C51.6763 90.5248 51.4372 90.8752 51.2672 91.2855C51.0977 91.6966 51.0121 92.1634 51.0121 92.6863C51.0121 93.2092 51.0977 93.676 51.2672 94.0867C51.4372 94.4979 51.6763 94.8479 51.9837 95.1371C52.2915 95.4268 52.6474 95.6512 53.0522 95.8097C53.457 95.9687 53.8863 96.0475 54.3396 96.0475C54.809 96.0475 55.242 95.9687 55.6388 95.8097C56.0352 95.6512 56.3877 95.4268 56.6956 95.1371C57.0026 94.8479 57.2421 94.4979 57.412 94.0867C57.582 93.676 57.6671 93.2092 57.6671 92.6863C57.6671 92.1634 57.582 91.6966 57.412 91.2855C57.2421 90.8752 57.0026 90.5248 56.6956 90.2351C56.3877 89.9458 56.0352 89.7214 55.6388 89.5629C55.242 89.4043 54.809 89.3246 54.3396 89.3246ZM54.3396 86.3674C55.1008 86.3674 55.8657 86.4884 56.6344 86.7304C57.4036 86.9721 58.0998 87.3486 58.7235 87.8597C59.3467 88.3716 59.8527 89.0274 60.2415 89.8264C60.6299 90.6268 60.8243 91.5752 60.8243 92.672C60.8243 93.7882 60.6299 94.7416 60.2415 95.5318C59.8527 96.3225 59.3467 96.9685 58.7235 97.4703C58.0998 97.9725 57.4036 98.3352 56.6344 98.5582C55.8657 98.7817 55.1008 98.8931 54.3396 98.8931C53.5785 98.8931 52.8136 98.7817 52.0448 98.5582C51.2753 98.3352 50.5791 97.9725 49.9558 97.4703C49.3326 96.9685 48.8265 96.3225 48.4382 95.5318C48.0494 94.7416 47.855 93.7882 47.855 92.672C47.855 91.5752 48.0494 90.6268 48.4382 89.8264C48.8265 89.0274 49.3326 88.3716 49.9558 87.8597C50.5791 87.3486 51.2753 86.9721 52.0448 86.7304C52.8136 86.4884 53.5785 86.3674 54.3396 86.3674Z" fill="white"/>
<path d="M70.5392 91.891C71.0575 91.891 71.4657 91.7658 71.7655 91.5144C72.0649 91.2635 72.215 90.887 72.215 90.3848C72.215 89.9572 72.0893 89.5992 71.8384 89.3107C71.5871 89.0223 71.0975 88.8781 70.3693 88.8781H67.0903V91.891H70.5392ZM64.0301 87.3718C64.0301 87.1677 63.9736 87.037 63.8602 86.9813C63.7472 86.9257 63.6253 86.8886 63.4958 86.87V86.5352H71.2919C72.5064 86.5352 73.4737 86.8603 74.1944 87.5114C74.9146 88.1625 75.2747 89.1294 75.2747 90.4126C75.2747 91.417 75.02 92.2119 74.5102 92.7976C74 93.3838 73.3565 93.8438 72.5793 94.1786L74.7409 97.9169C74.8214 98.0661 74.9391 98.1956 75.093 98.3073C75.2465 98.4187 75.4126 98.4748 75.5906 98.4748V98.8096H70.6851V98.4748C70.7977 98.4748 70.9234 98.452 71.0613 98.4048C71.1983 98.3588 71.2679 98.261 71.2679 98.1121C71.2679 98.0193 71.1827 97.787 71.0128 97.4151C70.8428 97.0431 70.6484 96.6434 70.4296 96.2154C70.2116 95.7874 70.0007 95.3783 69.7983 94.9879C69.5959 94.597 69.4707 94.346 69.4222 94.2347H67.0903V97.9725C67.0903 98.1775 67.151 98.3073 67.2724 98.3634C67.3939 98.4187 67.5436 98.4562 67.7215 98.4748V98.8096H63.5443V98.4748C63.6418 98.4562 63.7472 98.4187 63.8602 98.3634C63.9736 98.3073 64.0301 98.1775 64.0301 97.9725V87.3718Z" fill="white"/>
</svg>
