<svg width="96" height="83" viewBox="0 0 96 83" fill="none" xmlns="http://www.w3.org/2000/svg">
<circle cx="40.5" cy="40.5" r="40.5" fill="#FFF4D0" fill-opacity="0.5"/>
<path d="M65.4669 26.2852V36.5351H43.6004V26.2852C43.3628 24.9939 42.1732 24.1017 40.8671 24.2352H21.7338C20.9791 24.2352 20.3672 23.6233 20.3672 22.8686V3.73533C20.3672 2.98054 20.9791 2.36867 21.7338 2.36867H40.8671C54.2566 2.19984 65.2586 12.8962 65.4669 26.2852Z" fill="#02A9F4"/>
<path d="M40.8666 2.36867H36.7666C50.1561 2.19984 61.1581 12.8962 61.3665 26.2852V36.5351H65.4664V26.2852C65.2581 12.8962 54.2561 2.19984 40.8666 2.36867Z" fill="#0377BC"/>
<path d="M88.6993 57.035V78.9015H68.1995C54.8099 79.0703 43.8079 68.3739 43.5996 54.985V42.0017H65.4662V54.985C65.7037 56.2763 66.8933 57.1685 68.1995 57.035H88.6993Z" fill="#02A9F4"/>
<path d="M64.0995 57.035H68.1995C66.8934 57.1685 65.7037 56.2763 65.4662 54.985V42.0017H61.3662V54.985C61.6038 56.2763 62.7934 57.1685 64.0995 57.035Z" fill="#0377BC"/>
<path d="M84.5996 57.0349H88.6996V78.9015H84.5996V57.0349Z" fill="#0377BC"/>
<path d="M94.1659 57.0351V78.9016C94.1659 80.4112 92.9421 81.6349 91.4325 81.6349C89.923 81.6349 88.6992 80.4112 88.6992 78.9016V57.0351C88.7037 55.5274 89.9248 54.3063 91.4325 54.3018C92.9375 54.3129 94.1547 55.5302 94.1659 57.0351Z" fill="#9E9E9E"/>
<path d="M68.1994 39.2682C68.1949 40.7759 66.9738 41.997 65.4661 42.0015H43.5995C42.0918 41.997 40.8707 40.7759 40.8662 39.2682C40.8774 37.7633 42.0946 36.5461 43.5995 36.5349H65.4661C66.9738 36.5394 68.1949 37.7605 68.1994 39.2682Z" fill="#9E9E9E"/>
<path d="M40.8665 1.0019H21.7333C20.2237 1.0019 19 2.22565 19 3.73522V22.8684C19 24.378 20.2237 25.6018 21.7333 25.6018H40.8665C41.4166 25.5424 41.9507 25.8094 42.2332 26.2851V35.4198C40.5958 35.9903 39.4986 37.5344 39.4986 39.2683C39.4986 41.0023 40.5958 42.5464 42.2332 43.1169V54.9849C42.4401 69.1293 54.0548 80.4384 68.1997 80.2681H87.5844C88.247 82.1494 90.1699 83.2784 92.1356 82.9405C94.1013 82.6025 95.5367 80.896 95.5329 78.9014V57.0349C95.5367 55.0404 94.1013 53.3339 92.1356 52.9959C90.1699 52.6579 88.247 53.787 87.5844 55.6682H68.1997C67.6497 55.7276 67.1156 55.4606 66.8331 54.9849V43.1169C68.4705 42.5464 69.5677 41.0023 69.5677 39.2683C69.5677 37.5344 68.4705 35.9903 66.8331 35.4198V26.2851C66.6261 12.1407 55.0114 0.831622 40.8665 1.0019V1.0019ZM90.0663 57.0349C90.0663 56.2801 90.6781 55.6682 91.4329 55.6682C92.1877 55.6682 92.7996 56.2801 92.7996 57.0349V78.9014C92.7996 79.6562 92.1877 80.2681 91.4329 80.2681C90.6781 80.2681 90.0663 79.6562 90.0663 78.9014V57.0349ZM40.8665 22.8684H21.7333V3.73522H40.8665C53.5022 3.56404 63.8937 13.6499 64.0997 26.2851V35.1684H44.9665V26.2851C44.7351 24.2322 42.9275 22.7259 40.8665 22.8684ZM68.1997 58.4016H87.3329V77.5348H68.1997C55.564 77.706 45.1725 67.6201 44.9665 54.9849V43.3683H64.0997V54.9849C64.3312 57.0378 66.1387 58.5441 68.1997 58.4016ZM65.4664 40.635H43.5999C42.8451 40.635 42.2332 40.0231 42.2332 39.2683C42.2332 38.5136 42.8451 37.9017 43.5999 37.9017H65.4664C66.2212 37.9017 66.8331 38.5136 66.8331 39.2683C66.8331 40.0231 66.2212 40.635 65.4664 40.635Z" fill="black"/>
</svg>
